<?xml version="1.0" encoding="UTF-8"?>
<svg width="102px" height="77px" viewBox="0 0 102 77" version="1.1" xmlns="http://www.w3.org/2000/svg" xmlns:xlink="http://www.w3.org/1999/xlink">
    <!-- Generator: Sketch 52.1 (67048) - http://www.bohemiancoding.com/sketch -->
    <title>Group 2</title>
    <desc>Created with Sketch.</desc>
    <g id="Page-1" stroke="none" stroke-width="1" fill="none" fill-rule="evenodd">
        <g id="200" transform="translate(-559.000000, -260.000000)">
            <g id="Image" transform="translate(59.000000, 145.000000)">
                <g id="Group-2" transform="translate(501.000000, 115.000000)">
                    <g id="Group" transform="translate(15.928074, 0.000000)" fill-rule="nonzero">
                        <g id="Small" transform="translate(38.022814, 38.022814)">
                            <polygon id="Rectangle-path" fill="#E7B731" transform="translate(14.001473, 13.576773) rotate(-135.000000) translate(-14.001473, -13.576773) " points="4.44348218 4.01842376 23.5594636 4.01842376 23.5594636 23.1351227 4.44348218 23.1351227"></polygon>
                            <polygon id="Rectangle-path" fill="#F0D084" transform="translate(13.994233, 13.571215) rotate(-135.004051) translate(-13.994233, -13.571215) " points="6.26643048 5.84269512 21.7220359 5.84269512 21.7220359 21.2997357 6.26643048 21.2997357"></polygon>
                            <polygon id="Rectangle-path" fill="#E7B731" transform="translate(13.996312, 13.578639) rotate(-135.000000) translate(-13.996312, -13.578639) " points="8.9475316 8.52949978 19.0450921 8.52949978 19.0450921 18.6277778 8.9475316 18.6277778"></polygon>
                            <polygon id="Rectangle-path" fill="#F4DDA9" transform="translate(13.996350, 13.578452) rotate(-135.000000) translate(-13.996350, -13.578452) " points="11.4061283 10.9882298 16.5865722 10.9882298 16.5865722 16.1686737 11.4061283 16.1686737"></polygon>
                        </g>
                        <g id="Big" transform="translate(-0.000000, 0.000000)">
                            <polygon id="Rectangle-path" fill="#E7B731" transform="translate(24.542701, 24.121745) rotate(-135.000000) translate(-24.542701, -24.121745) " points="7.55988574 7.13857048 41.5255163 7.13857048 41.5255163 41.1049185 7.55988574 41.1049185"></polygon>
                            <polygon id="Rectangle-path" fill="#F0D084" transform="translate(24.540941, 24.121998) rotate(-135.000000) translate(-24.540941, -24.121998) " points="10.8098942 10.3909518 38.2719869 10.3909518 38.2719869 37.8530445 10.8098942 37.8530445"></polygon>
                            <polygon id="Rectangle-path" fill="#E7B731" transform="translate(24.536492, 24.124151) rotate(-135.000000) translate(-24.536492, -24.124151) " points="15.5654268 15.1530857 33.507557 15.1530857 33.507557 33.0952158 15.5654268 33.0952158"></polygon>
                            <polygon id="Rectangle-path" fill="#F4DDA9" transform="translate(24.536889, 24.123825) rotate(-135.000000) translate(-24.536889, -24.123825) " points="19.9347607 19.5220557 29.1390175 19.5220557 29.1390175 28.725595 19.9347607 28.725595"></polygon>
                        </g>
                    </g>
                    <path d="M7.08967047,68.0561893 L4.03992395,68.0561893 L4.03992395,75.8455851 L3.04974651,75.8455851 L3.04974651,68.0561893 L0,68.0561893 L0,67.1056189 L7.08967047,67.1056189 L7.08967047,68.0561893 Z M11.2352134,75.8455851 L10.1130123,75.8455851 L7.39332488,67.1056189 L8.43631179,67.1056189 L10.680714,74.4461343 L13.0307351,67.1056189 L14.1661386,67.1056189 L16.5161597,74.4461343 L18.7605619,67.1056189 L19.8035488,67.1056189 L17.0838614,75.8455851 L15.9616603,75.8455851 L13.5984368,68.5050697 L11.2352134,75.8455851 Z M24.7808407,67 C26.0834807,67 27.1528616,67.4356737 27.9890156,68.3070342 C28.8075664,69.1519899 29.2168357,70.2081686 29.2168357,71.475602 C29.2168357,72.7430355 28.8075664,73.7992142 27.9890156,74.6441698 C27.1528616,75.5155303 26.0834807,75.9512041 24.7808407,75.9512041 C23.4782008,75.9512041 22.4088198,75.5155303 21.5726658,74.6441698 C20.754115,73.7992142 20.3448458,72.7430355 20.3448458,71.475602 C20.3448458,70.2081686 20.754115,69.1519899 21.5726658,68.3070342 C22.4088198,67.4356737 23.4782008,67 24.7808407,67 Z M24.7808407,74.9874313 C25.819432,74.9874313 26.6599743,74.648574 27.3024926,73.9708492 C27.9186061,73.3195292 28.2266582,72.4877885 28.2266582,71.475602 C28.2266582,70.4634156 27.9186061,69.6316749 27.3024926,68.9803549 C26.6599743,68.30263 25.819432,67.9637727 24.7808407,67.9637727 C23.7422494,67.9637727 22.9017072,68.30263 22.2591888,68.9803549 C21.6430754,69.6316749 21.3350232,70.4634156 21.3350232,71.475602 C21.3350232,72.4877885 21.6430754,73.3195292 22.2591888,73.9708492 C22.9017072,74.648574 23.7422494,74.9874313 24.7808407,74.9874313 Z M34.6034009,67.1056189 L34.6034009,74.8950148 L39.369455,74.8950148 L39.369455,75.8455851 L33.6132235,75.8455851 L33.6132235,67.1056189 L34.6034009,67.1056189 Z M48.281052,75.8455851 L47.1852556,75.8455851 L46.115864,73.3107309 L41.785488,73.3107309 L40.7160963,75.8455851 L39.6203,75.8455851 L43.3301648,67.1056189 L44.5711872,67.1056189 L48.281052,75.8455851 Z M45.7329954,72.3997676 L43.950676,68.1354035 L42.1683566,72.3997676 L45.7329954,72.3997676 Z M56.9286016,67.1056189 L56.9286016,75.8455851 L55.7799958,75.8455851 L50.3802281,68.4654626 L50.3802281,75.8455851 L49.3900507,75.8455851 L49.3900507,67.1056189 L50.5386565,67.1056189 L55.9384242,74.4593367 L55.9384242,67.1056189 L56.9286016,67.1056189 Z M65.2724968,68.0561893 L62.2227503,68.0561893 L62.2227503,75.8455851 L61.2325729,75.8455851 L61.2325729,68.0561893 L58.1828264,68.0561893 L58.1828264,67.1056189 L65.2724968,67.1056189 L65.2724968,68.0561893 Z M67.516899,68.0561893 L67.516899,70.9871145 L72.3753697,70.9871145 L72.3753697,71.9508872 L67.516899,71.9508872 L67.516899,74.8950148 L72.9562738,74.8950148 L72.9562738,75.8455851 L66.5267216,75.8455851 L66.5267216,67.1056189 L72.9562738,67.1056189 L72.9562738,68.0561893 L67.516899,68.0561893 Z M75.5439375,75.8455851 L74.55376,75.8455851 L74.55376,67.1056189 L78.73891,67.1056189 C79.6278738,67.1056189 80.3407944,67.3520606 80.8776933,67.8449514 C81.4145922,68.3290406 81.6830376,68.993553 81.6830376,69.8385087 C81.6830376,70.9299097 81.2297609,71.6736355 80.3231939,72.0697085 C80.0679469,72.1841296 79.8171045,72.2677437 79.5706591,72.3205534 L81.8678707,75.8455851 L80.6928602,75.8455851 L78.5804816,72.4921842 L75.5439375,72.4921842 L75.5439375,75.8455851 Z M75.5439375,71.5548162 L78.5672793,71.5548162 C79.5002511,71.5548162 80.1427598,71.2643671 80.4948247,70.6834601 C80.626849,70.4634195 80.6928602,70.1817719 80.6928602,69.8385087 C80.6928602,69.2840065 80.5036281,68.8461324 80.1251584,68.5248733 C79.7466887,68.2036141 79.2450038,68.0429869 78.6200887,68.0429869 L75.5439375,68.0429869 L75.5439375,71.5548162 Z M90.9246937,67.1056189 L90.9246937,75.8455851 L89.7760879,75.8455851 L84.3763202,68.4654626 L84.3763202,75.8455851 L83.3861428,75.8455851 L83.3861428,67.1056189 L84.5347486,67.1056189 L89.9345163,74.4593367 L89.9345163,67.1056189 L90.9246937,67.1056189 Z M94.0668568,68.4522602 C93.899626,68.5930862 93.787407,68.751513 93.7301965,68.9275454 C93.6729859,69.1035778 93.6443811,69.2906095 93.6443811,69.488646 C93.6443811,69.6866824 93.7301956,69.8693133 93.9018272,70.0365441 C94.0734588,70.203775 94.3000972,70.3445988 94.581749,70.4590199 C94.8634009,70.5734409 95.1846553,70.6746581 95.5455218,70.7626743 C95.9063882,70.8506905 96.2738504,70.9409057 96.6479193,71.0333228 C97.0219882,71.1257398 97.3894504,71.2313577 97.7503169,71.3501796 C98.1111833,71.4690014 98.4324377,71.6208271 98.7140896,71.8056612 C99.3390047,72.2017341 99.6514575,72.7430257 99.6514575,73.4295522 C99.6514575,74.248103 99.3456058,74.8730087 98.7338931,75.3042881 C98.1221804,75.7355676 97.2750371,75.9512041 96.1924377,75.9512041 C94.9690123,75.9512041 94.0360545,75.6959609 93.3935361,75.1854668 C92.8214307,74.7277825 92.4957756,74.0764723 92.416561,73.2315167 L93.4463456,73.2315167 C93.4815521,73.8300269 93.7720012,74.2877044 94.3177017,74.6045627 C94.7929893,74.877413 95.4222958,75.0138361 96.2056401,75.0138361 C97.8427416,75.0138361 98.6612801,74.498949 98.6612801,73.4691593 C98.6612801,73.1170944 98.5138552,72.8398475 98.2190008,72.6374102 C97.9241465,72.4349729 97.554484,72.2677446 97.1100021,72.1357203 C96.6655202,72.003696 96.1858391,71.8804752 95.6709442,71.7660541 C95.1560494,71.651633 94.6763682,71.5042081 94.2318864,71.3237748 C93.7874045,71.1433416 93.4177419,70.9057014 93.1228876,70.6108471 C92.8280333,70.3159928 92.6806084,69.9177254 92.6806084,69.416033 C92.6806084,68.7031016 92.9534545,68.1222033 93.499155,67.6733207 C94.0448556,67.224438 94.8677948,67 95.9679975,67 C97.0770017,67 97.9351469,67.2552432 98.5424588,67.7657372 C99.0969609,68.2146199 99.3918108,68.7911174 99.4270173,69.4952471 L98.4104351,69.4952471 C98.3224189,68.7735142 97.85594,68.293833 97.0109844,68.0561893 C96.7117292,67.9681731 96.3398663,67.9241656 95.8953845,67.9241656 C95.4509026,67.9241656 95.0768393,67.9747742 94.7731834,68.0759928 C94.4695274,68.1772115 94.2340876,68.3026327 94.0668568,68.4522602 Z" id="TWO-LANTERNS" stroke="#FFFFFF" fill="#FFFFFF"></path>
                </g>
            </g>
        </g>
    </g>
</svg>