<?xml version="1.0" encoding="UTF-8"?>
<svg width="177px" height="66px" viewBox="0 0 177 66" version="1.1" xmlns="http://www.w3.org/2000/svg" xmlns:xlink="http://www.w3.org/1999/xlink">
    <!-- Generator: Sketch 52.1 (67048) - http://www.bohemiancoding.com/sketch -->
    <title>Group 2</title>
    <desc>Created with Sketch.</desc>
    <g id="Page-1" stroke="none" stroke-width="1" fill="none" fill-rule="evenodd">
        <g id="200" transform="translate(-576.000000, -260.000000)">
            <g id="Image" transform="translate(59.000000, 145.000000)">
                <g id="Group-2" transform="translate(516.000000, 115.000000)">
                    <g id="Group" transform="translate(0.928074, 0.000000)" fill-rule="nonzero">
                        <g id="Small" transform="translate(38.022814, 38.022814)">
                            <polygon id="Rectangle-path" fill="#E7B731" transform="translate(14.001473, 13.576773) rotate(-135.000000) translate(-14.001473, -13.576773) " points="4.44348218 4.01842376 23.5594636 4.01842376 23.5594636 23.1351227 4.44348218 23.1351227"></polygon>
                            <polygon id="Rectangle-path" fill="#F0D084" transform="translate(13.994233, 13.571215) rotate(-135.004051) translate(-13.994233, -13.571215) " points="6.26643048 5.84269512 21.7220359 5.84269512 21.7220359 21.2997357 6.26643048 21.2997357"></polygon>
                            <polygon id="Rectangle-path" fill="#E7B731" transform="translate(13.996312, 13.578639) rotate(-135.000000) translate(-13.996312, -13.578639) " points="8.9475316 8.52949978 19.0450921 8.52949978 19.0450921 18.6277778 8.9475316 18.6277778"></polygon>
                            <polygon id="Rectangle-path" fill="#F4DDA9" transform="translate(13.996350, 13.578452) rotate(-135.000000) translate(-13.996350, -13.578452) " points="11.4061283 10.9882298 16.5865722 10.9882298 16.5865722 16.1686737 11.4061283 16.1686737"></polygon>
                        </g>
                        <g id="Big" transform="translate(-0.000000, 0.000000)">
                            <polygon id="Rectangle-path" fill="#E7B731" transform="translate(24.542701, 24.121745) rotate(-135.000000) translate(-24.542701, -24.121745) " points="7.55988574 7.13857048 41.5255163 7.13857048 41.5255163 41.1049185 7.55988574 41.1049185"></polygon>
                            <polygon id="Rectangle-path" fill="#F0D084" transform="translate(24.540941, 24.121998) rotate(-135.000000) translate(-24.540941, -24.121998) " points="10.8098942 10.3909518 38.2719869 10.3909518 38.2719869 37.8530445 10.8098942 37.8530445"></polygon>
                            <polygon id="Rectangle-path" fill="#E7B731" transform="translate(24.536492, 24.124151) rotate(-135.000000) translate(-24.536492, -24.124151) " points="15.5654268 15.1530857 33.507557 15.1530857 33.507557 33.0952158 15.5654268 33.0952158"></polygon>
                            <polygon id="Rectangle-path" fill="#F4DDA9" transform="translate(24.536889, 24.123825) rotate(-135.000000) translate(-24.536889, -24.123825) " points="19.9347607 19.5220557 29.1390175 19.5220557 29.1390175 28.725595 19.9347607 28.725595"></polygon>
                        </g>
                    </g>
                    <path d="M85.0896705,54.0561893 L82.039924,54.0561893 L82.039924,61.8455851 L81.0497465,61.8455851 L81.0497465,54.0561893 L78,54.0561893 L78,53.1056189 L85.0896705,53.1056189 L85.0896705,54.0561893 Z M89.2352134,61.8455851 L88.1130123,61.8455851 L85.3933249,53.1056189 L86.4363118,53.1056189 L88.680714,60.4461343 L91.0307351,53.1056189 L92.1661386,53.1056189 L94.5161597,60.4461343 L96.7605619,53.1056189 L97.8035488,53.1056189 L95.0838614,61.8455851 L93.9616603,61.8455851 L91.5984368,54.5050697 L89.2352134,61.8455851 Z M102.780841,53 C104.083481,53 105.152862,53.4356737 105.989016,54.3070342 C106.807566,55.1519899 107.216836,56.2081686 107.216836,57.475602 C107.216836,58.7430355 106.807566,59.7992142 105.989016,60.6441698 C105.152862,61.5155303 104.083481,61.9512041 102.780841,61.9512041 C101.478201,61.9512041 100.40882,61.5155303 99.5726658,60.6441698 C98.754115,59.7992142 98.3448458,58.7430355 98.3448458,57.475602 C98.3448458,56.2081686 98.754115,55.1519899 99.5726658,54.3070342 C100.40882,53.4356737 101.478201,53 102.780841,53 Z M102.780841,60.9874313 C103.819432,60.9874313 104.659974,60.648574 105.302493,59.9708492 C105.918606,59.3195292 106.226658,58.4877885 106.226658,57.475602 C106.226658,56.4634156 105.918606,55.6316749 105.302493,54.9803549 C104.659974,54.30263 103.819432,53.9637727 102.780841,53.9637727 C101.742249,53.9637727 100.901707,54.30263 100.259189,54.9803549 C99.6430754,55.6316749 99.3350232,56.4634156 99.3350232,57.475602 C99.3350232,58.4877885 99.6430754,59.3195292 100.259189,59.9708492 C100.901707,60.648574 101.742249,60.9874313 102.780841,60.9874313 Z M112.603401,53.1056189 L112.603401,60.8950148 L117.369455,60.8950148 L117.369455,61.8455851 L111.613223,61.8455851 L111.613223,53.1056189 L112.603401,53.1056189 Z M126.281052,61.8455851 L125.185256,61.8455851 L124.115864,59.3107309 L119.785488,59.3107309 L118.716096,61.8455851 L117.6203,61.8455851 L121.330165,53.1056189 L122.571187,53.1056189 L126.281052,61.8455851 Z M123.732995,58.3997676 L121.950676,54.1354035 L120.168357,58.3997676 L123.732995,58.3997676 Z M134.928602,53.1056189 L134.928602,61.8455851 L133.779996,61.8455851 L128.380228,54.4654626 L128.380228,61.8455851 L127.390051,61.8455851 L127.390051,53.1056189 L128.538657,53.1056189 L133.938424,60.4593367 L133.938424,53.1056189 L134.928602,53.1056189 Z M143.272497,54.0561893 L140.22275,54.0561893 L140.22275,61.8455851 L139.232573,61.8455851 L139.232573,54.0561893 L136.182826,54.0561893 L136.182826,53.1056189 L143.272497,53.1056189 L143.272497,54.0561893 Z M145.516899,54.0561893 L145.516899,56.9871145 L150.37537,56.9871145 L150.37537,57.9508872 L145.516899,57.9508872 L145.516899,60.8950148 L150.956274,60.8950148 L150.956274,61.8455851 L144.526722,61.8455851 L144.526722,53.1056189 L150.956274,53.1056189 L150.956274,54.0561893 L145.516899,54.0561893 Z M153.543937,61.8455851 L152.55376,61.8455851 L152.55376,53.1056189 L156.73891,53.1056189 C157.627874,53.1056189 158.340794,53.3520606 158.877693,53.8449514 C159.414592,54.3290406 159.683038,54.993553 159.683038,55.8385087 C159.683038,56.9299097 159.229761,57.6736355 158.323194,58.0697085 C158.067947,58.1841296 157.817104,58.2677437 157.570659,58.3205534 L159.867871,61.8455851 L158.69286,61.8455851 L156.580482,58.4921842 L153.543937,58.4921842 L153.543937,61.8455851 Z M153.543937,57.5548162 L156.567279,57.5548162 C157.500251,57.5548162 158.14276,57.2643671 158.494825,56.6834601 C158.626849,56.4634195 158.69286,56.1817719 158.69286,55.8385087 C158.69286,55.2840065 158.503628,54.8461324 158.125158,54.5248733 C157.746689,54.2036141 157.245004,54.0429869 156.620089,54.0429869 L153.543937,54.0429869 L153.543937,57.5548162 Z M168.924694,53.1056189 L168.924694,61.8455851 L167.776088,61.8455851 L162.37632,54.4654626 L162.37632,61.8455851 L161.386143,61.8455851 L161.386143,53.1056189 L162.534749,53.1056189 L167.934516,60.4593367 L167.934516,53.1056189 L168.924694,53.1056189 Z M172.066857,54.4522602 C171.899626,54.5930862 171.787407,54.751513 171.730196,54.9275454 C171.672986,55.1035778 171.644381,55.2906095 171.644381,55.488646 C171.644381,55.6866824 171.730196,55.8693133 171.901827,56.0365441 C172.073459,56.203775 172.300097,56.3445988 172.581749,56.4590199 C172.863401,56.5734409 173.184655,56.6746581 173.545522,56.7626743 C173.906388,56.8506905 174.27385,56.9409057 174.647919,57.0333228 C175.021988,57.1257398 175.38945,57.2313577 175.750317,57.3501796 C176.111183,57.4690014 176.432438,57.6208271 176.71409,57.8056612 C177.339005,58.2017341 177.651458,58.7430257 177.651458,59.4295522 C177.651458,60.248103 177.345606,60.8730087 176.733893,61.3042881 C176.12218,61.7355676 175.275037,61.9512041 174.192438,61.9512041 C172.969012,61.9512041 172.036054,61.6959609 171.393536,61.1854668 C170.821431,60.7277825 170.495776,60.0764723 170.416561,59.2315167 L171.446346,59.2315167 C171.481552,59.8300269 171.772001,60.2877044 172.317702,60.6045627 C172.792989,60.877413 173.422296,61.0138361 174.20564,61.0138361 C175.842742,61.0138361 176.66128,60.498949 176.66128,59.4691593 C176.66128,59.1170944 176.513855,58.8398475 176.219001,58.6374102 C175.924147,58.4349729 175.554484,58.2677446 175.110002,58.1357203 C174.66552,58.003696 174.185839,57.8804752 173.670944,57.7660541 C173.156049,57.651633 172.676368,57.5042081 172.231886,57.3237748 C171.787404,57.1433416 171.417742,56.9057014 171.122888,56.6108471 C170.828033,56.3159928 170.680608,55.9177254 170.680608,55.416033 C170.680608,54.7031016 170.953455,54.1222033 171.499155,53.6733207 C172.044856,53.224438 172.867795,53 173.967997,53 C175.077002,53 175.935147,53.2552432 176.542459,53.7657372 C177.096961,54.2146199 177.391811,54.7911174 177.427017,55.4952471 L176.410435,55.4952471 C176.322419,54.7735142 175.85594,54.293833 175.010984,54.0561893 C174.711729,53.9681731 174.339866,53.9241656 173.895384,53.9241656 C173.450903,53.9241656 173.076839,53.9747742 172.773183,54.0759928 C172.469527,54.1772115 172.234088,54.3026327 172.066857,54.4522602 Z" id="TWO-LANTERNS" fill="#FFFFFF"></path>
                </g>
            </g>
        </g>
    </g>
</svg>