<?xml version="1.0" encoding="UTF-8"?>
<svg width="100px" height="78px" viewBox="0 0 100 78" version="1.1" xmlns="http://www.w3.org/2000/svg" xmlns:xlink="http://www.w3.org/1999/xlink">
    <!-- Generator: Sketch 52.1 (67048) - http://www.bohemiancoding.com/sketch -->
    <title>Group 2</title>
    <desc>Created with Sketch.</desc>
    <g id="Page-1" stroke="none" stroke-width="1" fill="none" fill-rule="evenodd">
        <g id="200" transform="translate(-559.000000, -145.000000)">
            <g id="Image" transform="translate(59.000000, 145.000000)">
                <g id="Group-2" transform="translate(500.000000, 0.000000)">
                    <g id="Group" transform="translate(16.928074, 0.000000)" fill-rule="nonzero">
                        <g id="Small" transform="translate(38.022814, 38.022814)">
                            <polygon id="Rectangle-path" fill="#E7B731" transform="translate(14.001473, 13.576773) rotate(-135.000000) translate(-14.001473, -13.576773) " points="4.44348218 4.01842376 23.5594636 4.01842376 23.5594636 23.1351227 4.44348218 23.1351227"></polygon>
                            <polygon id="Rectangle-path" fill="#F0D084" transform="translate(13.994233, 13.571215) rotate(-135.004051) translate(-13.994233, -13.571215) " points="6.26643048 5.84269512 21.7220359 5.84269512 21.7220359 21.2997357 6.26643048 21.2997357"></polygon>
                            <polygon id="Rectangle-path" fill="#E7B731" transform="translate(13.996312, 13.578639) rotate(-135.000000) translate(-13.996312, -13.578639) " points="8.9475316 8.52949978 19.0450921 8.52949978 19.0450921 18.6277778 8.9475316 18.6277778"></polygon>
                            <polygon id="Rectangle-path" fill="#F4DDA9" transform="translate(13.996350, 13.578452) rotate(-135.000000) translate(-13.996350, -13.578452) " points="11.4061283 10.9882298 16.5865722 10.9882298 16.5865722 16.1686737 11.4061283 16.1686737"></polygon>
                        </g>
                        <g id="Big" transform="translate(-0.000000, 0.000000)">
                            <polygon id="Rectangle-path" fill="#E7B731" transform="translate(24.542701, 24.121745) rotate(-135.000000) translate(-24.542701, -24.121745) " points="7.55988574 7.13857048 41.5255163 7.13857048 41.5255163 41.1049185 7.55988574 41.1049185"></polygon>
                            <polygon id="Rectangle-path" fill="#F0D084" transform="translate(24.540941, 24.121998) rotate(-135.000000) translate(-24.540941, -24.121998) " points="10.8098942 10.3909518 38.2719869 10.3909518 38.2719869 37.8530445 10.8098942 37.8530445"></polygon>
                            <polygon id="Rectangle-path" fill="#E7B731" transform="translate(24.536492, 24.124151) rotate(-135.000000) translate(-24.536492, -24.124151) " points="15.5654268 15.1530857 33.507557 15.1530857 33.507557 33.0952158 15.5654268 33.0952158"></polygon>
                            <polygon id="Rectangle-path" fill="#F4DDA9" transform="translate(24.536889, 24.123825) rotate(-135.000000) translate(-24.536889, -24.123825) " points="19.9347607 19.5220557 29.1390175 19.5220557 29.1390175 28.725595 19.9347607 28.725595"></polygon>
                        </g>
                    </g>
                    <path d="M7.12531686,69.8405154 L4.07557034,69.8405154 L4.07557034,77.6299113 L3.0853929,77.6299113 L3.0853929,69.8405154 L0.0356463878,69.8405154 L0.0356463878,68.8899451 L7.12531686,68.8899451 L7.12531686,69.8405154 Z M11.2708597,77.6299113 L10.1486586,77.6299113 L7.42897127,68.8899451 L8.47195817,68.8899451 L10.7163604,76.2304605 L13.0663815,68.8899451 L14.201785,68.8899451 L16.5518061,76.2304605 L18.7962083,68.8899451 L19.8391952,68.8899451 L17.1195078,77.6299113 L15.9973067,77.6299113 L13.6340832,70.2893959 L11.2708597,77.6299113 Z M24.8164871,68.7843262 C26.1191271,68.7843262 27.188508,69.2199999 28.024662,70.0913604 C28.8432128,70.936316 29.252482,71.9924947 29.252482,73.2599282 C29.252482,74.5273616 28.8432128,75.5835403 28.024662,76.428496 C27.188508,77.2998565 26.1191271,77.7355302 24.8164871,77.7355302 C23.5138472,77.7355302 22.4444662,77.2998565 21.6083122,76.428496 C20.7897614,75.5835403 20.3804922,74.5273616 20.3804922,73.2599282 C20.3804922,71.9924947 20.7897614,70.936316 21.6083122,70.0913604 C22.4444662,69.2199999 23.5138472,68.7843262 24.8164871,68.7843262 Z M24.8164871,76.7717575 C25.8550784,76.7717575 26.6956206,76.4329002 27.338139,75.7551753 C27.9542525,75.1038554 28.2623046,74.2721146 28.2623046,73.2599282 C28.2623046,72.2477417 27.9542525,71.416001 27.338139,70.764681 C26.6956206,70.0869562 25.8550784,69.7480989 24.8164871,69.7480989 C23.7778958,69.7480989 22.9373536,70.0869562 22.2948352,70.764681 C21.6787217,71.416001 21.3706696,72.2477417 21.3706696,73.2599282 C21.3706696,74.2721146 21.6787217,75.1038554 22.2948352,75.7551753 C22.9373536,76.4329002 23.7778958,76.7717575 24.8164871,76.7717575 Z M34.6390473,68.8899451 L34.6390473,76.6793409 L39.4051014,76.6793409 L39.4051014,77.6299113 L33.6488699,77.6299113 L33.6488699,68.8899451 L34.6390473,68.8899451 Z M48.3166984,77.6299113 L47.220902,77.6299113 L46.1515104,75.095057 L41.8211343,75.095057 L40.7517427,77.6299113 L39.6559463,77.6299113 L43.3658112,68.8899451 L44.6068335,68.8899451 L48.3166984,77.6299113 Z M45.7686417,74.1840938 L43.9863223,69.9197296 L42.204003,74.1840938 L45.7686417,74.1840938 Z M56.964248,68.8899451 L56.964248,77.6299113 L55.8156422,77.6299113 L50.4158745,70.2497888 L50.4158745,77.6299113 L49.4256971,77.6299113 L49.4256971,68.8899451 L50.5743029,68.8899451 L55.9740706,76.2436629 L55.9740706,68.8899451 L56.964248,68.8899451 Z M65.3081432,69.8405154 L62.2583967,69.8405154 L62.2583967,77.6299113 L61.2682193,77.6299113 L61.2682193,69.8405154 L58.2184728,69.8405154 L58.2184728,68.8899451 L65.3081432,68.8899451 L65.3081432,69.8405154 Z M67.5525454,69.8405154 L67.5525454,72.7714406 L72.4110161,72.7714406 L72.4110161,73.7352134 L67.5525454,73.7352134 L67.5525454,76.6793409 L72.9919202,76.6793409 L72.9919202,77.6299113 L66.562368,77.6299113 L66.562368,68.8899451 L72.9919202,68.8899451 L72.9919202,69.8405154 L67.5525454,69.8405154 Z M75.5795839,77.6299113 L74.5894064,77.6299113 L74.5894064,68.8899451 L78.7745564,68.8899451 C79.6635201,68.8899451 80.3764408,69.1363868 80.9133397,69.6292776 C81.4502386,70.1133667 81.718684,70.7778792 81.718684,71.6228348 C81.718684,72.7142358 81.2654073,73.4579617 80.3588403,73.8540346 C80.1035933,73.9684557 79.8527508,74.0520699 79.6063054,74.1048796 L81.9035171,77.6299113 L80.7285065,77.6299113 L78.616128,74.2765104 L75.5795839,74.2765104 L75.5795839,77.6299113 Z M75.5795839,73.3391424 L78.6029256,73.3391424 C79.5358975,73.3391424 80.1784062,73.0486932 80.5304711,72.4677862 C80.6624954,72.2477457 80.7285065,71.966098 80.7285065,71.6228348 C80.7285065,71.0683327 80.5392745,70.6304586 80.1608048,70.3091994 C79.7823351,69.9879402 79.2806502,69.8273131 78.6557351,69.8273131 L75.5795839,69.8273131 L75.5795839,73.3391424 Z M90.9603401,68.8899451 L90.9603401,77.6299113 L89.8117343,77.6299113 L84.4119666,70.2497888 L84.4119666,77.6299113 L83.4217892,77.6299113 L83.4217892,68.8899451 L84.570395,68.8899451 L89.9701627,76.2436629 L89.9701627,68.8899451 L90.9603401,68.8899451 Z M94.1025032,70.2365864 C93.9352724,70.3774123 93.8230534,70.5358391 93.7658428,70.7118716 C93.7086323,70.887904 93.6800275,71.0749356 93.6800275,71.2729721 C93.6800275,71.4710086 93.765842,71.6536395 93.9374736,71.8208703 C94.1091052,71.9881011 94.3357436,72.1289249 94.6173954,72.243346 C94.8990473,72.3577671 95.2203017,72.4589842 95.5811681,72.5470004 C95.9420346,72.6350166 96.3094968,72.7252319 96.6835657,72.8176489 C97.0576346,72.9100659 97.4250968,73.0156838 97.7859632,73.1345057 C98.1468297,73.2533276 98.4680841,73.4051533 98.749736,73.5899873 C99.3746511,73.9860603 99.6871039,74.5273519 99.6871039,75.2138783 C99.6871039,76.0324291 99.3812522,76.6573348 98.7695395,77.0886143 C98.1578268,77.5198937 97.3106835,77.7355302 96.2280841,77.7355302 C95.0046587,77.7355302 94.0717009,77.480287 93.4291825,76.969793 C92.8570771,76.5121087 92.531422,75.8607985 92.4522074,75.0158428 L93.481992,75.0158428 C93.5171985,75.6143531 93.8076476,76.0720305 94.3533481,76.3888889 C94.8286357,76.6617391 95.4579421,76.7981622 96.2412864,76.7981622 C97.878388,76.7981622 98.6969265,76.2832751 98.6969265,75.2534854 C98.6969265,74.9014206 98.5495015,74.6241737 98.2546472,74.4217364 C97.9597929,74.2192991 97.5901304,74.0520708 97.1456485,73.9200465 C96.7011666,73.7880222 96.2214855,73.6648013 95.7065906,73.5503802 C95.1916958,73.4359592 94.7120146,73.2885342 94.2675327,73.108101 C93.8230509,72.9276677 93.4533883,72.6900275 93.158534,72.3951732 C92.8636797,72.1003189 92.7162548,71.7020515 92.7162548,71.2003591 C92.7162548,70.4874278 92.9891009,69.9065295 93.5348014,69.4576468 C94.080502,69.0087641 94.9034412,68.7843262 96.0036439,68.7843262 C97.1126481,68.7843262 97.9707933,69.0395693 98.5781052,69.5500634 C99.1326073,69.9989461 99.4274572,70.5754436 99.4626637,71.2795733 L98.4460815,71.2795733 C98.3580653,70.5578404 97.8915864,70.0781592 97.0466308,69.8405154 C96.7473756,69.7524992 96.3755127,69.7084918 95.9310308,69.7084918 C95.486549,69.7084918 95.1124857,69.7591003 94.8088297,69.860319 C94.5051738,69.9615376 94.269734,70.0869588 94.1025032,70.2365864 Z" id="TWO-LANTERNS" fill="#FFFFFF"></path>
                </g>
            </g>
        </g>
    </g>
</svg>