<?xml version="1.0" encoding="UTF-8"?>
<svg width="174px" height="66px" viewBox="0 0 174 66" version="1.1" xmlns="http://www.w3.org/2000/svg" xmlns:xlink="http://www.w3.org/1999/xlink">
    <!-- Generator: Sketch 52.1 (67048) - http://www.bohemiancoding.com/sketch -->
    <title>Group 2</title>
    <desc>Created with Sketch.</desc>
    <g id="Page-1" stroke="none" stroke-width="1" fill="none" fill-rule="evenodd">
        <g id="200" transform="translate(-576.000000, -260.000000)">
            <g id="Image" transform="translate(59.000000, 145.000000)">
                <g id="Group-2" transform="translate(516.000000, 115.000000)">
                    <g id="Group" transform="translate(0.928074, 0.000000)" fill-rule="nonzero">
                        <g id="Small" transform="translate(38.022814, 38.022814)">
                            <polygon id="Rectangle-path" fill="#E7B731" transform="translate(14.001473, 13.576773) rotate(-135.000000) translate(-14.001473, -13.576773) " points="4.44348218 4.01842376 23.5594636 4.01842376 23.5594636 23.1351227 4.44348218 23.1351227"></polygon>
                            <polygon id="Rectangle-path" fill="#F0D084" transform="translate(13.994233, 13.571215) rotate(-135.004051) translate(-13.994233, -13.571215) " points="6.26643048 5.84269512 21.7220359 5.84269512 21.7220359 21.2997357 6.26643048 21.2997357"></polygon>
                            <polygon id="Rectangle-path" fill="#E7B731" transform="translate(13.996312, 13.578639) rotate(-135.000000) translate(-13.996312, -13.578639) " points="8.9475316 8.52949978 19.0450921 8.52949978 19.0450921 18.6277778 8.9475316 18.6277778"></polygon>
                            <polygon id="Rectangle-path" fill="#F4DDA9" transform="translate(13.996350, 13.578452) rotate(-135.000000) translate(-13.996350, -13.578452) " points="11.4061283 10.9882298 16.5865722 10.9882298 16.5865722 16.1686737 11.4061283 16.1686737"></polygon>
                        </g>
                        <g id="Big" transform="translate(-0.000000, 0.000000)">
                            <polygon id="Rectangle-path" fill="#E7B731" transform="translate(24.542701, 24.121745) rotate(-135.000000) translate(-24.542701, -24.121745) " points="7.55988574 7.13857048 41.5255163 7.13857048 41.5255163 41.1049185 7.55988574 41.1049185"></polygon>
                            <polygon id="Rectangle-path" fill="#F0D084" transform="translate(24.540941, 24.121998) rotate(-135.000000) translate(-24.540941, -24.121998) " points="10.8098942 10.3909518 38.2719869 10.3909518 38.2719869 37.8530445 10.8098942 37.8530445"></polygon>
                            <polygon id="Rectangle-path" fill="#E7B731" transform="translate(24.536492, 24.124151) rotate(-135.000000) translate(-24.536492, -24.124151) " points="15.5654268 15.1530857 33.507557 15.1530857 33.507557 33.0952158 15.5654268 33.0952158"></polygon>
                            <polygon id="Rectangle-path" fill="#F4DDA9" transform="translate(24.536889, 24.123825) rotate(-135.000000) translate(-24.536889, -24.123825) " points="19.9347607 19.5220557 29.1390175 19.5220557 29.1390175 28.725595 19.9347607 28.725595"></polygon>
                        </g>
                    </g>
                    <path d="M82.0896705,30.0561893 L79.039924,30.0561893 L79.039924,37.8455851 L78.0497465,37.8455851 L78.0497465,30.0561893 L75,30.0561893 L75,29.1056189 L82.0896705,29.1056189 L82.0896705,30.0561893 Z M86.2352134,37.8455851 L85.1130123,37.8455851 L82.3933249,29.1056189 L83.4363118,29.1056189 L85.680714,36.4461343 L88.0307351,29.1056189 L89.1661386,29.1056189 L91.5161597,36.4461343 L93.7605619,29.1056189 L94.8035488,29.1056189 L92.0838614,37.8455851 L90.9616603,37.8455851 L88.5984368,30.5050697 L86.2352134,37.8455851 Z M99.7808407,29 C101.083481,29 102.152862,29.4356737 102.989016,30.3070342 C103.807566,31.1519899 104.216836,32.2081686 104.216836,33.475602 C104.216836,34.7430355 103.807566,35.7992142 102.989016,36.6441698 C102.152862,37.5155303 101.083481,37.9512041 99.7808407,37.9512041 C98.4782008,37.9512041 97.4088198,37.5155303 96.5726658,36.6441698 C95.754115,35.7992142 95.3448458,34.7430355 95.3448458,33.475602 C95.3448458,32.2081686 95.754115,31.1519899 96.5726658,30.3070342 C97.4088198,29.4356737 98.4782008,29 99.7808407,29 Z M99.7808407,36.9874313 C100.819432,36.9874313 101.659974,36.648574 102.302493,35.9708492 C102.918606,35.3195292 103.226658,34.4877885 103.226658,33.475602 C103.226658,32.4634156 102.918606,31.6316749 102.302493,30.9803549 C101.659974,30.30263 100.819432,29.9637727 99.7808407,29.9637727 C98.7422494,29.9637727 97.9017072,30.30263 97.2591888,30.9803549 C96.6430754,31.6316749 96.3350232,32.4634156 96.3350232,33.475602 C96.3350232,34.4877885 96.6430754,35.3195292 97.2591888,35.9708492 C97.9017072,36.648574 98.7422494,36.9874313 99.7808407,36.9874313 Z M109.603401,29.1056189 L109.603401,36.8950148 L114.369455,36.8950148 L114.369455,37.8455851 L108.613223,37.8455851 L108.613223,29.1056189 L109.603401,29.1056189 Z M123.281052,37.8455851 L122.185256,37.8455851 L121.115864,35.3107309 L116.785488,35.3107309 L115.716096,37.8455851 L114.6203,37.8455851 L118.330165,29.1056189 L119.571187,29.1056189 L123.281052,37.8455851 Z M120.732995,34.3997676 L118.950676,30.1354035 L117.168357,34.3997676 L120.732995,34.3997676 Z M131.928602,29.1056189 L131.928602,37.8455851 L130.779996,37.8455851 L125.380228,30.4654626 L125.380228,37.8455851 L124.390051,37.8455851 L124.390051,29.1056189 L125.538657,29.1056189 L130.938424,36.4593367 L130.938424,29.1056189 L131.928602,29.1056189 Z M140.272497,30.0561893 L137.22275,30.0561893 L137.22275,37.8455851 L136.232573,37.8455851 L136.232573,30.0561893 L133.182826,30.0561893 L133.182826,29.1056189 L140.272497,29.1056189 L140.272497,30.0561893 Z M142.516899,30.0561893 L142.516899,32.9871145 L147.37537,32.9871145 L147.37537,33.9508872 L142.516899,33.9508872 L142.516899,36.8950148 L147.956274,36.8950148 L147.956274,37.8455851 L141.526722,37.8455851 L141.526722,29.1056189 L147.956274,29.1056189 L147.956274,30.0561893 L142.516899,30.0561893 Z M150.543937,37.8455851 L149.55376,37.8455851 L149.55376,29.1056189 L153.73891,29.1056189 C154.627874,29.1056189 155.340794,29.3520606 155.877693,29.8449514 C156.414592,30.3290406 156.683038,30.993553 156.683038,31.8385087 C156.683038,32.9299097 156.229761,33.6736355 155.323194,34.0697085 C155.067947,34.1841296 154.817104,34.2677437 154.570659,34.3205534 L156.867871,37.8455851 L155.69286,37.8455851 L153.580482,34.4921842 L150.543937,34.4921842 L150.543937,37.8455851 Z M150.543937,33.5548162 L153.567279,33.5548162 C154.500251,33.5548162 155.14276,33.2643671 155.494825,32.6834601 C155.626849,32.4634195 155.69286,32.1817719 155.69286,31.8385087 C155.69286,31.2840065 155.503628,30.8461324 155.125158,30.5248733 C154.746689,30.2036141 154.245004,30.0429869 153.620089,30.0429869 L150.543937,30.0429869 L150.543937,33.5548162 Z M165.924694,29.1056189 L165.924694,37.8455851 L164.776088,37.8455851 L159.37632,30.4654626 L159.37632,37.8455851 L158.386143,37.8455851 L158.386143,29.1056189 L159.534749,29.1056189 L164.934516,36.4593367 L164.934516,29.1056189 L165.924694,29.1056189 Z M169.066857,30.4522602 C168.899626,30.5930862 168.787407,30.751513 168.730196,30.9275454 C168.672986,31.1035778 168.644381,31.2906095 168.644381,31.488646 C168.644381,31.6866824 168.730196,31.8693133 168.901827,32.0365441 C169.073459,32.203775 169.300097,32.3445988 169.581749,32.4590199 C169.863401,32.5734409 170.184655,32.6746581 170.545522,32.7626743 C170.906388,32.8506905 171.27385,32.9409057 171.647919,33.0333228 C172.021988,33.1257398 172.38945,33.2313577 172.750317,33.3501796 C173.111183,33.4690014 173.432438,33.6208271 173.71409,33.8056612 C174.339005,34.2017341 174.651458,34.7430257 174.651458,35.4295522 C174.651458,36.248103 174.345606,36.8730087 173.733893,37.3042881 C173.12218,37.7355676 172.275037,37.9512041 171.192438,37.9512041 C169.969012,37.9512041 169.036054,37.6959609 168.393536,37.1854668 C167.821431,36.7277825 167.495776,36.0764723 167.416561,35.2315167 L168.446346,35.2315167 C168.481552,35.8300269 168.772001,36.2877044 169.317702,36.6045627 C169.792989,36.877413 170.422296,37.0138361 171.20564,37.0138361 C172.842742,37.0138361 173.66128,36.498949 173.66128,35.4691593 C173.66128,35.1170944 173.513855,34.8398475 173.219001,34.6374102 C172.924147,34.4349729 172.554484,34.2677446 172.110002,34.1357203 C171.66552,34.003696 171.185839,33.8804752 170.670944,33.7660541 C170.156049,33.651633 169.676368,33.5042081 169.231886,33.3237748 C168.787404,33.1433416 168.417742,32.9057014 168.122888,32.6108471 C167.828033,32.3159928 167.680608,31.9177254 167.680608,31.416033 C167.680608,30.7031016 167.953455,30.1222033 168.499155,29.6733207 C169.044856,29.224438 169.867795,29 170.967997,29 C172.077002,29 172.935147,29.2552432 173.542459,29.7657372 C174.096961,30.2146199 174.391811,30.7911174 174.427017,31.4952471 L173.410435,31.4952471 C173.322419,30.7735142 172.85594,30.293833 172.010984,30.0561893 C171.711729,29.9681731 171.339866,29.9241656 170.895384,29.9241656 C170.450903,29.9241656 170.076839,29.9747742 169.773183,30.0759928 C169.469527,30.1772115 169.234088,30.3026327 169.066857,30.4522602 Z" id="TWO-LANTERNS" fill="#FFFFFF"></path>
                </g>
            </g>
        </g>
    </g>
</svg>