<?xml version="1.0" encoding="UTF-8"?>
<svg width="345px" height="376px" viewBox="0 0 345 376" version="1.1" xmlns="http://www.w3.org/2000/svg" xmlns:xlink="http://www.w3.org/1999/xlink">
    <!-- Generator: Sketch 51.3 (57544) - http://www.bohemiancoding.com/sketch -->
    <title>Group 3</title>
    <desc>Created with Sketch.</desc>
    <defs>
        <rect id="path-1" x="0" y="0" width="327" height="335" rx="5"></rect>
        <filter x="-2.0%" y="-1.6%" width="104.0%" height="103.9%" filterUnits="objectBoundingBox" id="filter-2">
            <feOffset dx="0" dy="1" in="SourceAlpha" result="shadowOffsetOuter1"></feOffset>
            <feGaussianBlur stdDeviation="2" in="shadowOffsetOuter1" result="shadowBlurOuter1"></feGaussianBlur>
            <feColorMatrix values="0 0 0 0 0   0 0 0 0 0   0 0 0 0 0  0 0 0 0.5 0" type="matrix" in="shadowBlurOuter1"></feColorMatrix>
        </filter>
        <path d="M0.334449761,23.5472756 L76.3880383,72.5705128 L76.3880383,42.150641 C76.3880383,42.150641 73.7519139,51.7203526 68.7143541,48.4727564 C62.6921053,44.5913462 62.2162679,32.7091346 58.4511962,30.2820513 C54.7830144,27.9182692 53.6533493,37.2315705 48.1880383,33.7091346 C42.7708134,30.2171474 43.8416268,15.1410256 37.9255981,11.3277244 C31.7978469,7.37820513 33.3509569,29.7211538 27.6624402,26.0544872 C22.8825359,22.9727564 22.1748804,10.8092949 17.477512,7.78044872 C13.057177,4.93189103 12.795933,16.1850962 6.41339713,12.0705128 C4.23301435,10.6658654 1.56244019,5.41826923 0.334449761,0.41025641 L0.334449761,23.5472756" id="path-3"></path>
        <linearGradient x1="0%" y1="50%" x2="100%" y2="50%" id="linearGradient-5">
            <stop stop-color="#5AA0E3" offset="0%"></stop>
            <stop stop-color="#71D3C6" offset="100%"></stop>
        </linearGradient>
        <path d="M132.705502,112.752404 L134.721531,111.444712 L132.705502,112.752404 M131.716507,112.115385 L133.732536,110.806891 L131.716507,112.115385 M135.723445,110.794872 L137.193301,109.841346 L135.723445,110.794872 M134.733732,110.157051 L128.463876,106.116186 L133.449043,102.882212 L128.464593,106.116186 L134.73445,110.157051 L134.733732,110.157051 M125.446651,108.073718 L127.462679,106.766026 L125.446651,108.073718 M136.768421,103.726763 L134.450239,102.232372 L136.530861,100.882212 L136.530861,100.883013 L134.450239,102.232372 L136.768421,103.725962 L136.768421,103.726763 M118.184211,103.392628 L120.200239,102.084135 L118.184211,103.392628 M117.191627,102.752404 L119.207656,101.444712 L117.191627,102.752404 M133.457656,101.592147 L127.187799,97.5512821 L132.16866,94.3189103 L127.187799,97.5512821 L133.457656,101.592147 M121.202153,101.434295 L126.186603,98.2003205 L121.202153,101.435096 M122.701435,99.1778846 L125.193301,97.5608974 L122.701435,99.1778846 M126.195215,96.9110577 L119.928947,92.8717949 L126.195215,96.9110577 M112.95,96.1153846 L106.680144,92.0745192 L111.665311,88.8405449 L106.680861,92.0745192 L112.95,96.1153846 M103.662919,94.0320513 L105.678947,92.724359 L103.662919,94.0320513 M119.928947,92.8717949 L124.909809,89.6402244 L119.928947,92.8717949 M118.935646,92.2323718 L112.666507,88.1907051 L118.936364,92.2323718 L118.935646,92.2323718 M96.404067,89.3533654 L98.4200957,88.0456731 L96.404067,89.3533654 M101.715072,88.8741987 L99.4220096,87.3958333 L104.406459,84.161859 L99.4220096,87.3958333 L101.715072,88.8741987 M111.673206,87.5504808 L105.407656,83.5120192 L110.388517,80.2804487 L105.407656,83.5120192 L111.673923,87.5504808 L111.673206,87.5504808 M128.579426,87.2596154 L133.560287,84.0280449 L128.579426,87.2596154 M114.752871,86.8373397 L117.647368,84.9591346 L114.752871,86.8373397 M89.9956938,85.2219551 L0.705502392,27.6674679 C0.89784689,26.03125 5.0576555,0.641826923 14.5722488,0.641826923 C14.9461722,0.641826923 15.3279904,0.681089744 15.7177033,0.762820513 C25.0399522,2.70352564 29.0160287,32.4607372 42.1787081,41.8902244 C42.9028708,42.4086538 43.5811005,42.6474359 44.2212919,42.6474359 C47.9978469,42.6474359 50.4574163,34.3213141 53.3526316,25.994391 C53.927512,24.3397436 54.5203349,22.6850962 55.1440191,21.0953526 C55.2933014,21.1939103 55.4440191,21.2924679 55.5947368,21.3902244 C56.3461722,21.8741987 57.1212919,22.3461538 57.9244019,22.8060897 C60.672488,24.3733974 63.1327751,25.0304487 65.3669856,25.0304487 C69.84689,25.0296474 73.4188995,22.3886218 76.5818182,19.1490385 C85.0241627,34.7227564 84.3789474,61.9014423 95.8464115,69.2932692 C97.7239234,70.5040064 99.3308612,71.0208333 100.733254,71.0208333 C104.857177,71.0208333 107.217703,66.5488782 109.536603,62.0769231 C111.855502,57.6049679 114.132775,53.1330128 118.088756,53.1330128 C119.333254,53.1330128 120.744258,53.5761218 122.375598,54.6017628 C123.267703,55.1754808 124.105263,55.9206731 124.893301,56.8133013 L124.878947,62.5897436 L129.887081,65.818109 L124.87823,62.5897436 L89.9956938,85.2219551 M123.611483,84.0576923 L121.316986,82.5785256 L126.297847,79.3469551 L121.316986,82.5785256 L123.611483,84.0576923 M120.323684,81.9383013 L114.058134,77.8998397 L119.038995,74.6682692 L114.058134,77.8998397 L120.323684,81.9383013" id="path-6"></path>
        <linearGradient x1="0%" y1="51.3965722%" x2="100.269754%" y2="51.3965722%" id="linearGradient-8">
            <stop stop-color="#C597C0" offset="0%"></stop>
            <stop stop-color="#C2A3B8" offset="100%"></stop>
        </linearGradient>
        <path d="M47.6720096,50.6610577 L45.0086124,48.9447115 L42.9925837,50.2524038 L42.0035885,49.6153846 L44.0196172,48.306891 L37.7497608,44.2660256 L35.7337321,45.5737179 L34.7411483,44.9334936 L36.757177,43.6258013 L30.4873206,39.5841346 L28.4712919,40.8926282 L27.4787081,40.2524038 L29.4947368,38.9447115 L23.2291866,34.9054487 L21.2131579,36.2139423 L20.2198565,35.5737179 L22.2358852,34.2652244 L15.9660287,30.224359 L13.95,31.5320513 L12.9574163,30.8926282 L14.973445,29.5841346 L8.70717703,25.5456731 L6.69114833,26.8533654 L0.28277512,22.7219551 L35.165311,0.0897435897 L40.1741627,3.31810897 C42.2497608,8.79407051 43.7476077,15.4807692 44.8356459,22.1650641 L43.8473684,21.5280449 L38.8665072,24.7596154 L45.1320574,28.7988782 L45.7421053,28.4030449 C46.0062201,30.4463141 46.2351675,32.4519231 46.434689,34.3838141 L42.4557416,31.8189103 L37.4748804,35.0512821 L43.7447368,39.0921474 L46.708134,37.1698718 C46.7454545,37.5785256 46.7820574,37.9831731 46.8179426,38.3822115 L44.7373206,39.7323718 L47.0555024,41.2267628 C47.0921053,41.6899038 47.126555,42.1442308 47.1595694,42.5889423 L43.7361244,40.3822115 L38.7509569,43.6161859 L45.0208134,47.6570513 L45.0215311,47.6570513 L47.4035885,46.1113782 C47.4308612,46.5360577 47.4566986,46.9463141 47.4803828,47.3413462 L46.0105263,48.2948718 L47.5966507,49.3173077 C47.6239234,49.8028846 47.6490431,50.2516026 47.6720096,50.6610577 M31.4892344,38.9350962 L37.7583732,42.9759615 L42.742823,39.7419872 L36.4736842,35.7003205 L31.4892344,38.9342949 M24.2303828,34.255609 L30.495933,38.2948718 L35.4803828,35.0608974 L29.2148325,31.0216346 L24.2303828,34.255609 M36.4822967,34.4110577 L41.4631579,31.1794872 L35.19689,27.1402244 L30.2160287,30.3717949 L36.4822967,34.4110577 M23.2370813,33.6153846 L28.2215311,30.3814103 L21.9523923,26.3405449 L16.9672249,29.5745192 L23.2370813,33.6153846 M29.223445,29.7323718 L34.2043062,26.5 L27.9344498,22.4591346 L25.0399522,24.3373397 L22.9535885,25.6907051 L29.2227273,29.7323718 M12.0021531,26.3741987 L15.9746411,28.9342949 L20.9590909,25.7003205 L14.6935407,21.661859 L9.70909091,24.8958333 L12.0021531,26.3741987 M21.9610048,25.0504808 L26.941866,21.8189103 L20.6755981,17.7804487 L15.6947368,21.0120192 L21.9602871,25.0504808 M33.8985646,21.5576923 L37.8732057,24.119391 L42.854067,20.8878205 L36.5849282,16.8469551 L31.604067,20.0785256 L33.8985646,21.5576923 M30.6107656,19.4383013 L35.5916268,16.2067308 L29.3260766,12.1682692 L24.3452153,15.3998397 L30.6107656,19.4383013" id="path-9"></path>
        <linearGradient x1="-188.418725%" y1="-8.55608195%" x2="100.372564%" y2="-8.55608195%" id="linearGradient-11">
            <stop stop-color="#EEC1D7" offset="0%"></stop>
            <stop stop-color="#EACCD1" offset="100%"></stop>
        </linearGradient>
        <path d="M5.72440191,9.72836538 L0.716267943,6.5 L0.73062201,0.723557692 C2.68708134,2.93910256 4.33564593,6.06330128 5.72440191,9.72836538" id="path-12"></path>
        <linearGradient x1="-2479.43537%" y1="16.0971703%" x2="253.23875%" y2="16.0971703%" id="linearGradient-14">
            <stop stop-color="#B990B3" offset="0%"></stop>
            <stop stop-color="#B59CAC" offset="100%"></stop>
        </linearGradient>
        <polyline id="path-15" points="6.92655502 7.41907051 6.92655502 7.41907051 0.661004785 3.38060897 5.64186603 0.149038462 11.9074163 4.1875 6.92655502 7.41907051"></polyline>
        <linearGradient x1="-1007.90045%" y1="-225.658547%" x2="208.985322%" y2="-225.658547%" id="linearGradient-17">
            <stop stop-color="#F7C9E0" offset="0%"></stop>
            <stop stop-color="#F3D5DA" offset="100%"></stop>
        </linearGradient>
        <polyline id="path-18" points="6.29425837 7.29246795 0.0251196172 3.25160256 5.00598086 0.0200320513 11.2751196 4.06089744 6.29425837 7.29246795"></polyline>
        <linearGradient x1="-1072.10207%" y1="-289.918466%" x2="144.395534%" y2="-289.918466%" id="linearGradient-20">
            <stop stop-color="#F7C9E0" offset="0%"></stop>
            <stop stop-color="#F3D5DA" offset="100%"></stop>
        </linearGradient>
        <polyline id="path-21" points="6.88923445 7.42227564 6.88923445 7.42227564 0.622966507 3.3838141 5.60382775 0.15224359 11.8700957 4.19070513 6.88923445 7.42227564"></polyline>
        <linearGradient x1="-930.923362%" y1="-302.854624%" x2="285.884755%" y2="-302.854624%" id="linearGradient-23">
            <stop stop-color="#F7C9E0" offset="0%"></stop>
            <stop stop-color="#F3D5DA" offset="100%"></stop>
        </linearGradient>
        <path d="M6.37607656,7.96554487 L0.110526316,3.92628205 L5.09138756,0.694711538 L6.07966507,1.33173077 C6.42057416,3.42307692 6.72129187,5.51602564 6.9861244,7.56971154 L6.37607656,7.96554487" id="path-24"></path>
        <linearGradient x1="-1859.82255%" y1="-354.364117%" x2="130.636743%" y2="-354.364117%" id="linearGradient-26">
            <stop stop-color="#F7C9E0" offset="0%"></stop>
            <stop stop-color="#F3D5DA" offset="100%"></stop>
        </linearGradient>
        <polyline id="path-27" points="6.49808612 6.05288462 0.231818182 2.01362179 2.24784689 0.705929487 8.51411483 4.74439103 6.49808612 6.05288462"></polyline>
        <linearGradient x1="-1155.45927%" y1="-557.005844%" x2="496.932409%" y2="-557.005844%" id="linearGradient-29">
            <stop stop-color="#F7C9E0" offset="0%"></stop>
            <stop stop-color="#F3D5DA" offset="100%"></stop>
        </linearGradient>
        <polyline id="path-30" points="6.72990431 7.97435897 6.72990431 7.97435897 0.46076555 3.93349359 5.44521531 0.699519231 11.7143541 4.74038462 6.72990431 7.97435897"></polyline>
        <linearGradient x1="-941.702806%" y1="-420.321621%" x2="274.406888%" y2="-420.321621%" id="linearGradient-32">
            <stop stop-color="#F7C9E0" offset="0%"></stop>
            <stop stop-color="#F3D5DA" offset="100%"></stop>
        </linearGradient>
        <polyline id="path-33" points="6.33875598 7.96875 6.33875598 7.96875 0.0724880383 3.92948718 5.05334928 0.697916667 11.3196172 4.73717949 6.33875598 7.96875"></polyline>
        <linearGradient x1="-1060.03446%" y1="-431.551686%" x2="156.773658%" y2="-431.551686%" id="linearGradient-35">
            <stop stop-color="#F7C9E0" offset="0%"></stop>
            <stop stop-color="#F3D5DA" offset="100%"></stop>
        </linearGradient>
        <path d="M6.42416268,7.84214744 L0.15430622,3.80128205 L5.13516746,0.568910256 L9.11411483,3.1338141 C9.21244019,4.08253205 9.30287081,5.01041667 9.38755981,5.91987179 L6.42416268,7.84214744" id="path-36"></path>
        <linearGradient x1="-1369.8562%" y1="-495.736477%" x2="112.351341%" y2="-495.736477%" id="linearGradient-38">
            <stop stop-color="#F7C9E0" offset="0%"></stop>
            <stop stop-color="#F3D5DA" offset="100%"></stop>
        </linearGradient>
        <polyline id="path-39" points="6.89712919 7.71955128 0.627990431 3.6786859 5.61244019 0.443910256 11.8815789 4.48557692 6.89712919 7.71955128"></polyline>
        <linearGradient x1="-1070.7398%" y1="-548.920705%" x2="145.369898%" y2="-548.920705%" id="linearGradient-41">
            <stop stop-color="#F7C9E0" offset="0%"></stop>
            <stop stop-color="#F3D5DA" offset="100%"></stop>
        </linearGradient>
        <polyline id="path-42" points="6.7507177 5.67067308 0.480861244 1.62980769 2.49688995 0.321314103 8.76674641 4.36298077 6.7507177 5.67067308"></polyline>
        <linearGradient x1="-1417.81724%" y1="-819.188137%" x2="233.858813%" y2="-819.188137%" id="linearGradient-44">
            <stop stop-color="#F7C9E0" offset="0%"></stop>
            <stop stop-color="#F3D5DA" offset="100%"></stop>
        </linearGradient>
        <polyline id="path-45" points="6.8361244 5.54487179 0.566267943 1.50320513 2.58229665 0.195512821 8.85215311 4.23637821 6.8361244 5.54487179"></polyline>
        <linearGradient x1="-1505.46557%" y1="-906.710605%" x2="146.210481%" y2="-906.710605%" id="linearGradient-47">
            <stop stop-color="#F7C9E0" offset="0%"></stop>
            <stop stop-color="#F3D5DA" offset="100%"></stop>
        </linearGradient>
        <path d="M1.66363636,2.04166667 L0.0775119617,1.01923077 L1.54736842,0.0657051282 C1.59114833,0.77724359 1.6291866,1.43830128 1.66363636,2.04166667" id="path-48"></path>
        <linearGradient x1="-8512.44344%" y1="-2610.30008%" x2="115.882353%" y2="-2610.30008%" id="linearGradient-50">
            <stop stop-color="#F7C9E0" offset="0%"></stop>
            <stop stop-color="#F3D5DA" offset="100%"></stop>
        </linearGradient>
        <path d="M5.50406699,4.50480769 L0.648086124,1.37419872 L2.66411483,0.0665064103 L5.32751196,1.78285256 C5.40861244,3.25 5.46100478,4.20432692 5.50406699,4.50480769" id="path-51"></path>
        <linearGradient x1="-2718.29737%" y1="-1198.24878%" x2="100%" y2="-1198.24878%" id="linearGradient-53">
            <stop stop-color="#F7C9E0" offset="0%"></stop>
            <stop stop-color="#F3D5DA" offset="100%"></stop>
        </linearGradient>
        <polyline id="path-54" points="6.64449761 7.29967949 2.67200957 4.73958333 0.378947368 3.26121795 5.36339713 0.0272435897 11.6289474 4.06570513 6.64449761 7.29967949"></polyline>
        <linearGradient x1="-877.480064%" y1="-356.126047%" x2="339.017544%" y2="-356.126047%" id="linearGradient-56">
            <stop stop-color="#F7C9E0" offset="0%"></stop>
            <stop stop-color="#F3D5DA" offset="100%"></stop>
        </linearGradient>
        <polyline id="path-57" points="6.97464115 7.29647436 6.97464115 7.29647436 0.704784689 3.25480769 2.79114833 1.90144231 5.68564593 0.0232371795 11.9555024 4.06410256 6.97464115 7.29647436"></polyline>
        <linearGradient x1="-995.145445%" y1="-367.048584%" x2="221.27456%" y2="-367.048584%" id="linearGradient-59">
            <stop stop-color="#F7C9E0" offset="0%"></stop>
            <stop stop-color="#F3D5DA" offset="100%"></stop>
        </linearGradient>
        <polyline id="path-60" points="6.58349282 5.92628205 0.313636364 1.88461538 2.32966507 0.576923077 8.59952153 4.61778846 6.58349282 5.92628205"></polyline>
        <linearGradient x1="-1242.56388%" y1="-644.218095%" x2="409.11217%" y2="-644.218095%" id="linearGradient-62">
            <stop stop-color="#F7C9E0" offset="0%"></stop>
            <stop stop-color="#F3D5DA" offset="100%"></stop>
        </linearGradient>
        <polyline id="path-63" points="6.81172249 7.84615385 0.546172249 3.80689103 5.53062201 0.572916667 11.7961722 4.61217949 6.81172249 7.84615385"></polyline>
        <linearGradient x1="-1006.55821%" y1="-484.774705%" x2="209.939394%" y2="-484.774705%" id="linearGradient-65">
            <stop stop-color="#F7C9E0" offset="0%"></stop>
            <stop stop-color="#F3D5DA" offset="100%"></stop>
        </linearGradient>
        <polyline id="path-66" points="6.665311 5.79727564 0.399760766 1.7588141 2.41578947 0.450320513 8.68133971 4.48958333 6.665311 5.79727564"></polyline>
        <linearGradient x1="-1330.91256%" y1="-732.054548%" x2="321.622324%" y2="-732.054548%" id="linearGradient-68">
            <stop stop-color="#F7C9E0" offset="0%"></stop>
            <stop stop-color="#F3D5DA" offset="100%"></stop>
        </linearGradient>
        <path d="M2.55789474,3.56570513 L0.239712919,2.07211538 L2.32033493,0.72275641 C2.40645933,1.70112179 2.4854067,2.65144231 2.55789474,3.56570513" id="path-69"></path>
        <linearGradient x1="-5769.3808%" y1="-1499.15445%" x2="134.210526%" y2="-1499.15445%" id="linearGradient-71">
            <stop stop-color="#F7C9E0" offset="0%"></stop>
            <stop stop-color="#F3D5DA" offset="100%"></stop>
        </linearGradient>
        <path d="M6.98325359,7.59294872 L0.713397129,3.55208333 L5.69784689,0.318108974 L9.12129187,2.52483974 C9.215311,3.78285256 9.29569378,4.96233974 9.365311,6.04727564 L6.98325359,7.59294872" id="path-72"></path>
        <linearGradient x1="-1476.65699%" y1="-613.338473%" x2="105.143094%" y2="-613.338473%" id="linearGradient-74">
            <stop stop-color="#F7C9E0" offset="0%"></stop>
            <stop stop-color="#F3D5DA" offset="100%"></stop>
        </linearGradient>
        <path d="M9.65956938,14.8293269 C7.53157895,14.8293269 5.19976077,14.2075321 2.60885167,12.7291667 C1.80358852,12.2700321 1.02703349,11.7980769 0.276315789,11.3141026 C0.274162679,11.3133013 0.271291866,11.3108974 0.269138756,11.3100962 C2.70574163,5.34214744 5.63755981,0.52724359 9.83325359,0.52724359 C11.1014354,0.52724359 12.4837321,0.966346154 14.0038278,1.9463141 C16.6844498,3.67387821 18.8260766,6.12580128 20.5930622,9.06330128 C17.4925837,12.2403846 14.0016746,14.8293269 9.65956938,14.8293269" id="path-75"></path>
        <linearGradient x1="-269.764814%" y1="342.058379%" x2="403.609012%" y2="342.058379%" id="linearGradient-77">
            <stop stop-color="#C597C0" offset="0%"></stop>
            <stop stop-color="#C2A3B8" offset="100%"></stop>
        </linearGradient>
        <path d="M10.8215311,7.40224359 C8.58732057,7.40224359 6.12703349,6.74519231 3.37894737,5.17788462 C2.57583732,4.71794872 1.8007177,4.24599359 1.0492823,3.76201923 C0.898564593,3.66426282 0.74784689,3.56570513 0.598564593,3.46714744 C0.726315789,3.14102564 0.856220096,2.81650641 0.986842105,2.49599359 C0.988995215,2.49679487 0.991866029,2.49919872 0.994019139,2.5 C1.74473684,2.98397436 2.52129187,3.45592949 3.32655502,3.9150641 C5.91746411,5.39342949 8.2492823,6.01522436 10.3772727,6.01522436 C14.719378,6.01522436 18.2102871,3.42628205 21.3107656,0.249198718 C21.5598086,0.663461538 21.8016746,1.08814103 22.0363636,1.52083333 C18.873445,4.76041667 15.3014354,7.40144231 10.8215311,7.40224359" id="path-78"></path>
        <linearGradient x1="-253.937061%" y1="564.590568%" x2="384.44928%" y2="564.590568%" id="linearGradient-80">
            <stop stop-color="#D1AFCC" offset="0%"></stop>
            <stop stop-color="#CDBBC5" offset="100%"></stop>
        </linearGradient>
        <polyline id="path-81" points="52.5976077 186.882212 18.4643541 164.880609 65.8715311 134.322917 100.004785 156.324519 52.5976077 186.882212"></polyline>
        <filter x="-8.6%" y="-9.5%" width="117.2%" height="126.6%" filterUnits="objectBoundingBox" id="filter-82">
            <feOffset dx="0" dy="2" in="SourceAlpha" result="shadowOffsetOuter1"></feOffset>
            <feGaussianBlur stdDeviation="2" in="shadowOffsetOuter1" result="shadowBlurOuter1"></feGaussianBlur>
            <feColorMatrix values="0 0 0 0 0   0 0 0 0 0   0 0 0 0 0  0 0 0 0.5 0" type="matrix" in="shadowBlurOuter1"></feColorMatrix>
        </filter>
    </defs>
    <g id="Page-1" stroke="none" stroke-width="1" fill="none" fill-rule="evenodd">
        <g id="Artboard" transform="translate(-897.000000, -75.000000)">
            <g id="Group-3" transform="translate(901.000000, 75.000000)">
                <g id="R-Image">
                    <rect id="Rectangle-11" fill="#5E6990" x="21" y="0" width="320" height="376" rx="8"></rect>
                    <g id="Computer" transform="translate(0.000000, 20.000000)" fill-rule="nonzero">
                        <g id="Rectangle-2">
                            <use fill="black" fill-opacity="1" filter="url(#filter-2)" xlink:href="#path-1"></use>
                            <use fill="#FFFFFF" xlink:href="#path-1"></use>
                        </g>
                    </g>
                </g>
                <g id="Group" transform="translate(14.000000, 64.000000)">
                    <polyline id="Fill-24" fill="#3F498B" points="160.858134 110.738782 157.235885 108.388622 157.238038 107.512821 160.860287 109.862981 160.858134 110.738782"></polyline>
                    <polyline id="Fill-25" fill="#3F498B" points="260.159569 175.166667 160.858134 110.738782 160.860287 109.862981 260.159569 174.289263 260.159569 175.166667"></polyline>
                    <path d="M171.637321,195.661859 L165.38756,191.607372 L166.063636,191.169071 L172.313397,195.223558 L171.637321,195.661859 M164.398565,190.965545 L158.148804,186.911058 L158.82488,186.471955 L165.073923,190.526442 L164.398565,190.965545 M157.163397,186.270833 L150.913636,182.216346 L151.589713,181.778045 L157.838756,185.832532 L157.163397,186.270833 M149.923923,181.574519 L143.67488,177.520032 L144.350957,177.080929 L150.6,181.136218 L149.923923,181.574519 M142.685167,176.877404 L136.439713,172.825321 L137.115789,172.387019 L143.361244,176.439103 L142.685167,176.877404 M135.45,172.183494 L121.965789,163.434295 L122.641866,162.995994 L136.126077,171.745192 L135.45,172.183494 M115.57823,159.290064 L0.0150717703,84.3116987 L0.693301435,83.875 L116.253589,158.851763 L115.57823,159.290064" id="Fill-26" fill="#3F498B"></path>
                    <path d="M288.465789,119.023237 L212.412201,70 L212.412201,10.6410256 C212.412201,9.59134615 212.838517,8.96394231 213.446411,8.96394231 C213.655263,8.96394231 213.885646,9.03766026 214.127512,9.19391026 L223.530861,15.2548077 L223.530861,61.1666667 L288.465789,103.023237 L288.465789,119.023237" id="Fill-30" fill="#3F498B"></path>
                    <path d="M299.58445,110.189904 L288.465789,103.023237 L288.465789,59.6642628 C288.465789,58.2540064 287.697847,56.6153846 286.750478,56.0048077 L223.530861,15.2548077 L223.530861,1.80769231 C223.530861,0.758012821 223.956459,0.130608974 224.565072,0.130608974 C224.773923,0.130608974 225.004306,0.204326923 225.246172,0.359775641 L297.868421,47.1714744 C298.815789,47.7820513 299.58445,49.4206731 299.58445,50.8309295 L299.58445,110.189904" id="Fill-31" fill="#3F498B"></path>
                    <path d="M288.465789,103.023237 L223.530861,61.1666667 L223.530861,15.2548077 L286.750478,56.0048077 C287.697847,56.6153846 288.465789,58.2540064 288.465789,59.6642628 L288.465789,103.023237" id="Fill-32" fill="#4E5794"></path>
                    <path d="M160.985167,60.5929487 L160.998804,55.2940705 L160.985167,60.5929487 M157.363636,58.2588141 L127.784211,39.1915064 L127.784211,33.0697115 C127.784211,32.2620192 128.111483,31.7796474 128.579426,31.7796474 C128.740191,31.7796474 128.917464,31.8365385 129.103349,31.9567308 L157.434689,50.2179487 C157.400957,50.4439103 157.382297,50.6875 157.381579,50.9471154 L157.363636,58.2588141" id="Fill-33" fill="#3F498B"></path>
                    <path d="M186.289234,71.5953526 L160.998804,55.2940705 L160.985167,60.5929487 L157.363636,58.2588141 L157.381579,50.9471154 C157.382297,50.6875 157.400957,50.4439103 157.434689,50.2179487 L184.969378,67.9663462 C185.698565,68.4366987 186.289234,69.6971154 186.289234,70.7820513 L186.289234,71.5953526" id="Fill-34" fill="#3F498B"></path>
                    <path d="M186.289234,116.444712 L178.108852,111.171474 L178.108852,75.4559295 L160.97512,64.411859 L178.108852,75.4559295 L178.108852,73.5184295 C178.108852,72.4759615 177.541866,71.2652244 176.841388,70.8141026 L160.985167,60.5929487 L160.998804,55.2940705 L186.289234,71.5953526 L186.289234,116.444712" id="Fill-35" fill="#3F498B"></path>
                    <path d="M52.6672249,189.232372 L18.5332536,167.229968 L31.5681818,158.828526 L67.676555,182.255609 L56.888756,189.209936 L54.7952153,187.860577 L52.6672249,189.232372 M68.3547847,181.81891 L32.2464115,158.391026 L65.9404306,136.672276 L68.0339713,138.021635 L70.1619617,136.64984 L104.295933,158.651442 L68.3547847,181.81891" id="Fill-36" fill="#263271"></path>
                    <polyline id="Fill-37" fill="#333F7A" points="67.676555 182.255609 31.5681818 158.828526 32.2464115 158.391026 68.3547847 181.81891 67.676555 182.255609"></polyline>
                    <path d="M198.100478,249.729167 C196.858134,249.729167 195.615072,249.423077 194.664115,248.810096 L94.5796651,184.297276 C93.6200957,183.678686 93.1421053,182.86859 93.1442584,182.059295 L93.1507177,179.378205 L93.1514354,179.385417 C93.1507177,178.737179 93.4578947,178.089744 94.0729665,177.542468 C94.1124402,177.570513 94.1533493,177.597756 94.1949761,177.624199 L194.280144,242.137821 C195.230383,242.75 196.474163,243.05609 197.716507,243.05609 C198.07177,243.05609 198.427033,243.03125 198.77512,242.981571 L199.285407,243.315705 L200.580861,242.452724 C200.780383,242.358173 200.971292,242.252404 201.151435,242.135417 L258.745694,204.767628 L264.080383,208.228365 L201.536124,248.807692 C200.589474,249.422276 199.345694,249.729167 198.100478,249.729167 M264.538995,207.649038 L259.42177,204.328526 L264.154306,201.258013 L260.159569,198.683494 L264.154306,201.258013 L264.213876,177.796474 L266.439474,179.240385 L266.375598,204.232372 L264.544737,205.420673 L264.538995,207.649038 M260.549282,192.313301 L260.159569,192.0625 L260.549282,192.313301 M266.441627,178.365385 L264.216029,176.921474 L264.361005,119.903846 C264.363158,118.816506 264.060287,117.623397 263.555024,116.525641 C265.266029,117.887821 266.588038,120.612981 266.582297,122.878205 L266.441627,178.365385" id="Fill-40" fill="#263271"></path>
                    <polyline id="Fill-41" fill="#333F7A" points="264.080383 208.228365 258.745694 204.767628 259.42177 204.328526 264.538995 207.649038 264.538278 207.93109 264.080383 208.228365"></polyline>
                    <polyline id="Fill-42" fill="#333F7A" points="266.439474 179.240385 264.213876 177.796474 264.216029 176.921474 266.441627 178.365385 266.439474 179.240385"></polyline>
                    <path d="M264.154306,201.258013 L260.159569,198.683494 L260.159569,192.0625 L260.549282,192.313301 L260.591627,175.447115 L264.213876,177.796474 L264.154306,201.258013 M264.216029,176.921474 L260.594498,174.571314 L260.733732,119.581731 L260.159569,119.211538 L260.159569,114.30609 L263.148804,116.233173 C263.285885,116.322115 263.421531,116.419872 263.555024,116.525641 C264.060287,117.623397 264.363158,118.816506 264.361005,119.903846 L264.216029,176.921474" id="Fill-43" fill="#263271"></path>
                    <polyline id="Fill-44" fill="#333F7A" points="264.213876 177.796474 260.591627 175.447115 260.594498 174.571314 264.216029 176.921474 264.213876 177.796474"></polyline>
                    <path d="M260.549282,192.313301 L260.159569,192.0625 L260.159569,175.166667 L260.591627,175.447115 L260.549282,192.313301 M260.594498,174.571314 L260.159569,174.289263 L260.159569,119.211538 L260.733732,119.581731 L260.594498,174.571314" id="Fill-45" fill="#263271"></path>
                    <polyline id="Fill-46" fill="#333F7A" points="260.591627 175.447115 260.159569 175.166667 260.159569 174.289263 260.594498 174.571314 260.591627 175.447115"></polyline>
                    <polyline id="Fill-47" fill="#E4F2FD" points="280.933493 131.064103 204.879904 82.0408654 204.879904 24.2003205 280.933493 73.2227564 280.933493 131.064103"></polyline>
                    <path d="M279.218182,68.0456731 L206.595933,21.2347756 C205.647847,20.6233974 204.879904,21.2716346 204.879904,22.681891 L204.879904,24.2307692 L280.933493,73.2540064 L280.933493,71.7051282 C280.933493,70.2948718 280.16555,68.65625 279.218182,68.0456731" id="Fill-48" fill="#011C53"></path>
                    <path d="M210.07177,25.6850962 C210.07177,26.2003205 209.748086,26.4094551 209.348325,26.1522436 C208.948565,25.8942308 208.62488,25.2676282 208.62488,24.7524038 C208.62488,24.2371795 208.948565,24.0288462 209.348325,24.2860577 C209.748086,24.5440705 210.07177,25.1706731 210.07177,25.6850962" id="Fill-49" fill="#82E8C1"></path>
                    <path d="M212.405742,27.1899038 C212.405742,27.7051282 212.082057,27.9142628 211.682297,27.65625 C211.282536,27.3990385 210.958852,26.7724359 210.958852,26.2572115 C210.958852,25.7419872 211.282536,25.5328526 211.682297,25.7908654 C212.082057,26.0480769 212.405742,26.6746795 212.405742,27.1899038" id="Fill-50" fill="#82E8C1"></path>
                    <path d="M214.739713,28.6947115 C214.739713,29.2091346 214.416029,29.4182692 214.016268,29.1610577 C213.616507,28.9030449 213.292823,28.2764423 213.292823,27.7612179 C213.292823,27.2467949 213.616507,27.0376603 214.016268,27.2948718 C214.416029,27.5528846 214.739713,28.1794872 214.739713,28.6947115" id="Fill-51" fill="#82E8C1"></path>
                    <g id="Group-54" transform="translate(204.545455, 58.493590)">
                        <mask id="mask-4" fill="white">
                            <use xlink:href="#path-3"></use>
                        </mask>
                        <g id="Clip-53"></g>
                        <path d="M0.334449761,23.5472756 L76.3880383,72.5705128 L76.3880383,42.150641 C76.3880383,42.150641 73.7519139,51.7203526 68.7143541,48.4727564 C62.6921053,44.5913462 62.2162679,32.7091346 58.4511962,30.2820513 C54.7830144,27.9182692 53.6533493,37.2315705 48.1880383,33.7091346 C42.7708134,30.2171474 43.8416268,15.1410256 37.9255981,11.3277244 C31.7978469,7.37820513 33.3509569,29.7211538 27.6624402,26.0544872 C22.8825359,22.9727564 22.1748804,10.8092949 17.477512,7.78044872 C13.057177,4.93189103 12.795933,16.1850962 6.41339713,12.0705128 C4.23301435,10.6658654 1.56244019,5.41826923 0.334449761,0.41025641 L0.334449761,23.5472756" id="Fill-52" fill="url(#linearGradient-5)" mask="url(#mask-4)"></path>
                    </g>
                    <polyline id="Fill-55" fill="#85A8FF" points="225.190191 44.0673077 208.62488 33.3886218 208.62488 31.5488782 225.190191 42.2275641 225.190191 44.0673077"></polyline>
                    <polyline id="Fill-56" fill="#C5D5DD" points="232.207895 52.9399038 208.62488 37.7387821 208.62488 36.7419872 232.207895 51.9439103 232.207895 52.9399038"></polyline>
                    <polyline id="Fill-57" fill="#C5D5DD" points="232.207895 55.125 208.62488 39.9238782 208.62488 38.9270833 232.207895 54.1282051 232.207895 55.125"></polyline>
                    <polyline id="Fill-58" fill="#C5D5DD" points="227.711483 54.4110577 208.62488 42.1081731 208.62488 41.1113782 227.711483 53.4150641 227.711483 54.4110577"></polyline>
                    <polyline id="Fill-59" fill="#C5D5DD" points="244.224402 65.5536859 240.929426 63.4294872 240.929426 62.4334936 244.224402 64.556891 244.224402 65.5536859"></polyline>
                    <polygon id="Fill-60" fill="#626BC1" points="211.554545 86.4254808 211.810048 86.4254808 211.810048 49.9759615 211.554545 49.9759615"></polygon>
                    <polygon id="Fill-61" fill="#626BC1" points="221.817703 93.0408654 222.073206 93.0408654 222.073206 56.5913462 221.817703 56.5913462"></polygon>
                    <polygon id="Fill-62" fill="#626BC1" points="232.080144 99.65625 232.335646 99.65625 232.335646 63.2067308 232.080144 63.2067308"></polygon>
                    <polygon id="Fill-63" fill="#626BC1" points="242.343301 106.271635 242.598804 106.271635 242.598804 69.8213141 242.343301 69.8213141"></polygon>
                    <polygon id="Fill-64" fill="#626BC1" points="252.605742 112.887019 252.861244 112.887019 252.861244 76.4366987 252.605742 76.4366987"></polygon>
                    <polygon id="Fill-65" fill="#626BC1" points="262.8689 119.502404 263.124402 119.502404 263.124402 83.0520833 262.8689 83.0520833"></polygon>
                    <polygon id="Fill-66" fill="#626BC1" points="273.13134 126.117788 273.38756 126.117788 273.38756 89.6674679 273.13134 89.6674679"></polygon>
                    <path d="M241.123206,68.9527244 C241.123206,67.9927885 241.726077,67.6041667 242.471053,68.0841346 C243.215311,68.5641026 243.8189,69.7307692 243.8189,70.6907051 C243.8189,71.6498397 243.215311,72.0392628 242.471053,71.5592949 C241.726077,71.0793269 241.123206,69.9126603 241.123206,68.9527244" id="Fill-67" fill="#F86174"></path>
                    <path d="M151.335646,144.379808 L146.354785,147.611378 L152.620335,151.64984 L157.601196,148.418269 L151.335646,144.379808 M164.870813,209.440705 L169.851675,206.209135 L163.585407,202.170673 L158.604545,205.402244 L164.870813,209.440705 M202.161962,177.141827 L197.1811,180.373397 L203.446651,184.411859 L208.427512,181.180288 L202.161962,177.141827 M217.96866,193.772436 L222.948804,190.540865 L216.683254,186.501603 L211.702392,189.733173 L217.96866,193.772436 M165.856938,153.739583 L160.876077,156.971154 L167.141627,161.010417 L172.122488,157.778846 L165.856938,153.739583 M114.04378,176.678686 L119.024641,173.447115 L112.759091,169.408654 L107.77823,172.640224 L114.04378,176.678686 M139.252392,171.000801 L134.271531,174.232372 L140.537081,178.271635 L145.517943,175.040064 L139.252392,171.000801 M133.266029,174.884615 L128.285167,178.116186 L134.551435,182.155449 L139.532297,178.923878 L133.266029,174.884615 M120.030144,172.794872 L125.010287,169.563301 L118.744737,165.52484 L113.763876,168.75641 L120.030144,172.794872 M232.489952,203.132212 L237.470813,199.900641 L231.204545,195.862179 L226.223684,199.09375 L232.489952,203.132212 M193.913397,228.161058 L198.894258,224.929487 L192.62799,220.891026 L187.647129,224.122596 L193.913397,228.161058 M205.885407,220.393429 L210.866268,217.161859 L204.6,213.123397 L199.619139,216.354968 L205.885407,220.393429 M199.899043,224.277244 L204.879904,221.045673 L198.614354,217.007212 L193.633493,220.238782 L199.899043,224.277244 M142.685167,149.991987 L137.704306,153.223558 L143.969856,157.262019 L148.950718,154.030449 L142.685167,149.991987 M193.512201,182.754006 L188.530622,185.985577 L194.79689,190.024038 L199.777751,186.792468 L193.512201,182.754006 M157.206459,159.351763 L152.225598,162.583333 L158.491866,166.622596 L163.472727,163.391026 L157.206459,159.351763 M223.839474,208.744391 L228.820335,205.512821 L222.554785,201.474359 L217.573206,204.705929 L223.839474,208.744391 M225.2311,198.453526 L230.211962,195.221955 L223.942105,191.180288 L218.961244,194.411859 L225.2311,198.453526 M198.626555,215.714744 L203.607416,212.483173 L197.33756,208.441506 L192.356699,211.673878 L198.626555,215.714744 M121.30622,181.359776 L126.287081,178.128205 L120.017943,174.08734 L115.037081,177.31891 L121.30622,181.359776 M159.882775,156.330929 L164.863636,153.099359 L158.594498,149.058494 L153.613636,152.290064 L159.882775,156.330929 M186.654545,223.482372 L191.635407,220.250801 L185.36555,216.209135 L180.384689,219.440705 L186.654545,223.482372 M192.640191,219.598558 L197.621053,216.366987 L191.351914,212.325321 L186.371053,215.557692 L192.640191,219.598558 M127.292584,177.475962 L132.273445,174.244391 L126.003589,170.203526 L121.022727,173.435096 L127.292584,177.475962 M239.752392,207.814103 L244.733254,204.582532 L238.463397,200.540865 L233.482536,203.772436 L239.752392,207.814103 M201.175837,232.842949 L206.156699,229.611378 L199.886842,225.569712 L194.905981,228.801282 L201.175837,232.842949 M161.032536,185.040064 L156.051675,188.271635 L162.320813,192.313301 L167.301675,189.081731 L161.032536,185.040064 M187.637081,167.778846 L182.65622,171.010417 L188.925359,175.052083 L193.906938,171.819712 L187.637081,167.778846 M173.115789,158.418269 L168.134928,161.64984 L174.404067,165.691506 L179.384928,162.459936 L173.115789,158.418269 M146.510526,175.679487 L141.529665,178.911058 L147.799522,182.952724 L152.780383,179.721154 L146.510526,175.679487 M213.147847,225.075321 L218.128708,221.84375 L211.858852,217.802083 L206.87799,221.033654 L213.147847,225.075321 M140.52488,179.563301 L135.544019,182.794872 L141.813876,186.836538 L146.794737,183.604968 L140.52488,179.563301 M155.046172,188.923878 L150.065311,192.155449 L156.335167,196.197115 L161.316029,192.965545 L155.046172,188.923878 M207.161483,228.959135 L212.142344,225.727564 L205.873206,221.685897 L200.892344,224.917468 L207.161483,228.959135 M210.709809,189.092949 L215.69067,185.861378 L209.420813,181.820513 L204.439952,185.052083 L210.709809,189.092949 M172.133254,214.121795 L177.114115,210.890224 L170.844258,206.849359 L165.863397,210.080929 L172.133254,214.121795 M216.580622,204.065705 L221.561483,200.834135 L215.292344,196.793269 L210.310766,200.02484 L216.580622,204.065705 M151.232297,161.94391 L156.213876,158.711538 L149.944019,154.670673 L144.963158,157.902244 L151.232297,161.94391 M153.773684,180.361378 L148.792823,183.592949 L155.062679,187.633814 L160.042823,184.402244 L153.773684,180.361378 M194.899522,172.459936 L189.91866,175.691506 L196.188517,179.733173 L201.169378,176.501603 L194.899522,172.459936 M168.294976,189.721154 L163.314115,192.952724 L169.583971,196.994391 L174.564833,193.762821 L168.294976,189.721154 M180.37823,163.10016 L175.397368,166.331731 L181.667225,170.372596 L186.648086,167.141026 L180.37823,163.10016 M147.787321,184.245192 L142.806459,187.476763 L149.076316,191.517628 L154.057177,188.286058 L147.787321,184.245192 M231.101914,213.426282 L236.082775,210.194712 L229.813636,206.153045 L224.832057,209.384615 L231.101914,213.426282 M164.465311,164.030449 L159.48445,167.262821 L165.754306,171.303686 L170.735167,168.072115 L164.465311,164.030449 M178.986603,173.391026 L174.005742,176.622596 L180.275598,180.664263 L185.256459,177.432692 L178.986603,173.391026 M202.05933,194.705929 L207.040191,191.474359 L200.770335,187.432692 L195.789474,190.664263 L202.05933,194.705929 M186.249043,178.072115 L181.268182,181.303686 L187.538038,185.345353 L192.5189,182.113782 L186.249043,178.072115 M171.727751,168.71234 L166.74689,171.94391 L173.016746,175.984776 L177.997608,172.753205 L171.727751,168.71234 M187.529426,186.635417 L182.544976,189.869391 L188.810526,193.907853 L193.794976,190.673878 L187.529426,186.635417 M181.54378,190.519231 L176.558612,193.753205 L182.82488,197.791667 L187.80933,194.557692 L181.54378,190.519231 M145.238038,167.116987 L140.253589,170.350962 L146.519856,174.390224 L151.504306,171.15625 L145.238038,167.116987 M136.70311,153.873397 L131.71866,157.107372 L137.984211,161.145833 L142.96866,157.911859 L136.70311,153.873397 M151.224402,163.233173 L146.239952,166.467147 L152.505502,170.50641 L157.489952,167.272436 L151.224402,163.233173 M130.716746,157.757212 L125.732297,160.991186 L131.997847,165.029647 L136.983014,161.795673 L130.716746,157.757212 M217.853828,212.628205 L222.838278,209.394231 L216.57201,205.355769 L211.58756,208.589744 L217.853828,212.628205 M211.867464,216.512019 L216.851914,213.278045 L210.586364,209.239583 L205.601914,212.473558 L211.867464,216.512019 M145.246651,165.826923 L150.2311,162.592949 L143.961962,158.552083 L138.976794,161.786058 L145.246651,165.826923 M210.594976,207.949519 L215.579426,204.715545 L209.309569,200.673878 L204.32512,203.908654 L210.594976,207.949519 M204.608612,211.833333 L209.593062,208.599359 L203.323923,204.557692 L198.338756,207.792468 L204.608612,211.833333 M139.261005,169.710737 L144.245455,166.476763 L137.975598,162.435897 L132.991148,165.669872 L139.261005,169.710737 M158.483254,167.911859 L153.498804,171.145833 L159.767943,175.1875 L164.752392,171.953526 L158.483254,167.911859 M219.129904,221.19391 L224.114354,217.959936 L217.844498,213.918269 L212.860048,217.152244 L219.129904,221.19391 M152.49689,171.795673 L147.51244,175.030449 L153.782297,179.071314 L158.766746,175.83734 L152.49689,171.795673 M225.116268,217.310096 L230.100718,214.076122 L223.830861,210.034455 L218.846411,213.268429 L225.116268,217.310096 M167.018182,181.15625 L162.033732,184.390224 L168.303589,188.431891 L173.288038,185.197917 L167.018182,181.15625 M173.004545,177.272436 L168.020096,180.50641 L174.289234,184.548077 L179.274402,181.314103 L173.004545,177.272436 M190.087321,202.473558 L195.07177,199.238782 L188.802632,195.197917 L183.817464,198.431891 L190.087321,202.473558 M196.073684,198.589744 L201.058134,195.354968 L194.788278,191.314103 L189.803828,194.548077 L196.073684,198.589744 M165.745694,172.59375 L160.760526,175.827724 L167.030383,179.86859 L172.01555,176.634615 L165.745694,172.59375 M174.280622,185.83734 L169.296172,189.071314 L175.566029,193.112981 L180.550478,189.879006 L174.280622,185.83734 M180.266986,181.953526 L175.282536,185.1875 L181.552392,189.229167 L186.536842,185.995192 L180.266986,181.953526 M159.75933,176.477564 L154.77488,179.711538 L161.044737,183.752404 L166.029187,180.518429 L159.75933,176.477564 M133.27823,173.592147 L138.259091,170.360577 L124.7311,161.641026 L119.750239,164.872596 L133.27823,173.592147 M184.105263,206.354968 L189.086124,203.122596 L175.557416,194.403045 L170.576555,197.634615 L184.105263,206.354968 M178.1189,210.237981 L183.099761,207.00641 L162.308612,193.604968 L157.327751,196.836538 L178.1189,210.237981 M157.611962,204.762019 L162.592823,201.530449 L127.280383,178.768429 L122.299522,182 L157.611962,204.762019 M157.17488,132.301282 L264.154306,201.258013 L201.151435,242.135417 C199.260287,243.362179 196.182775,243.364583 194.280144,242.137821 L94.1949761,177.624199 C92.2880383,176.395032 92.2815789,174.404647 94.1727273,173.177885 L157.17488,132.301282" id="Fill-68" fill="#C6D0DC"></path>
                    <path d="M201.151435,242.135417 C199.260287,243.362179 196.182775,243.364583 194.280144,242.137821 L94.1949761,177.624199 C93.2361244,177.00641 92.7574163,176.195513 92.7595694,175.386218 L92.75311,178.066506 C92.7509569,178.875801 93.2289474,179.686699 94.187799,180.305288 L194.272967,244.818109 C196.176316,246.044872 199.253828,246.042468 201.144258,244.815705 L264.147129,203.939103 L264.154306,201.258013 L201.151435,242.135417" id="Fill-69" fill="#E4F2FD"></path>
                    <path d="M210.877033,83.1482372 C210.339474,82.8012821 209.901675,83.0801282 209.899522,83.7700321 C209.898086,84.4599359 210.333014,85.3004808 210.870574,85.6474359 C211.408852,85.994391 211.845933,85.7155449 211.848086,85.025641 C211.849522,84.3357372 211.415311,83.4951923 210.877033,83.1482372 M260.549282,192.313301 L260.733732,119.581731 L160.998804,55.2940705 L160.813636,128.025641 L260.549282,192.313301 M260.926794,113.258814 C262.830144,114.485577 264.366746,117.46234 264.361005,119.903846 L264.154306,201.258013 L157.175598,132.301282 L157.381579,50.9471154 C157.388038,48.505609 158.935407,47.5168269 160.842344,48.7459936 L260.926794,113.258814" id="Fill-70" fill="#011C53"></path>
                    <polyline id="Fill-71" fill="#C6D0DC" points="260.733732 119.581731 260.549282 192.313301 160.814354 128.025641 160.998804 55.2940705 260.733732 119.581731"></polyline>
                    <path d="M263.00311,111.911859 L162.917943,47.3990385 C161.959091,46.7804487 161.09067,46.7235577 160.464115,47.130609 L158.387799,48.4767628 C159.015072,48.0705128 159.882775,48.1274038 160.842344,48.7459936 L260.926794,113.258814 C262.830144,114.485577 264.366746,117.463141 264.361005,119.903846 L264.154306,201.258013 L266.229904,199.911859 L266.436603,118.556891 C266.443062,116.116186 264.905742,113.138622 263.00311,111.911859" id="Fill-72" fill="#E4F2FD"></path>
                    <path d="M176.841388,70.8141026 L123.170096,36.2179487 C122.470335,35.7668269 121.902632,36.2459936 121.902632,37.2884615 L121.902632,39.2259615 L178.108852,75.4559295 L178.108852,73.5184295 C178.108852,72.4759615 177.541866,71.2652244 176.841388,70.8141026" id="Fill-73" fill="#011C53"></path>
                    <path d="M125.739474,39.8854167 C125.739474,40.2660256 125.499761,40.4206731 125.204067,40.2299679 C124.909091,40.0392628 124.669378,39.5769231 124.669378,39.1963141 C124.669378,38.8149038 124.909091,38.6610577 125.204067,38.8509615 C125.499761,39.0416667 125.739474,39.5048077 125.739474,39.8854167" id="Fill-74" fill="#82E8C1"></path>
                    <path d="M127.464115,40.9967949 C127.464115,41.3782051 127.224402,41.5320513 126.929426,41.3421474 C126.633732,41.1514423 126.394737,40.6883013 126.394737,40.3076923 C126.394737,39.9270833 126.633732,39.7724359 126.929426,39.963141 C127.224402,40.1538462 127.464115,40.6161859 127.464115,40.9967949" id="Fill-75" fill="#82E8C1"></path>
                    <path d="M129.188756,42.1089744 C129.188756,42.4895833 128.949761,42.6442308 128.654067,42.4535256 C128.359091,42.2636218 128.119378,41.8004808 128.119378,41.4198718 C128.119378,41.0392628 128.359091,40.8846154 128.654067,41.0753205 C128.949761,41.2652244 129.188756,41.7283654 129.188756,42.1089744" id="Fill-76" fill="#82E8C1"></path>
                    <polyline id="Fill-77" fill="#8A96BF" points="160.867464 107.088942 160.866746 107.088942 160.884689 100.06891 160.884689 100.069712 160.867464 107.088942"></polyline>
                    <polyline id="Fill-78" fill="#929EC4" points="160.884689 100.069712 160.884689 100.06891 160.97512 64.411859 160.884689 100.069712"></polyline>
                    <path d="M157.245215,104.754808 L138.22823,92.4959936 C136.341388,88.3581731 134.397129,84.5464744 132.132057,81.5352564 L157.263158,97.7347756 L157.245215,104.754808 M127.784211,77.1746795 C127.642105,77.0753205 127.502153,76.9807692 127.362201,76.8910256 C125.774641,75.8677885 124.304785,75.4270833 122.918182,75.4270833 C122.574402,75.4270833 122.236364,75.4535256 121.902632,75.505609 L121.902632,39.2259615 L127.784211,43.0168269 L127.784211,77.1746795" id="Fill-79" fill="#8A96BF"></path>
                    <path d="M157.263158,97.7347756 L132.132057,81.5352564 C130.890431,79.8854167 129.551914,78.4751603 128.075598,77.3846154 C127.97799,77.3125 127.880383,77.2419872 127.784211,77.1746795 L127.784211,43.0168269 L157.353589,62.0769231 L157.263158,97.7347756" id="Fill-80" fill="#929EC4"></path>
                    <path d="M136.974402,91.6883013 L121.902632,81.9727564 L121.902632,76.9399038 C122.359091,76.8333333 122.823445,76.7764423 123.297129,76.7764423 C124.5689,76.7764423 125.908852,77.1826923 127.351435,78.1129808 C127.494258,78.2043269 127.638517,78.3020833 127.784211,78.4046474 L127.784211,78.7331731 L129.502392,79.8405449 C132.372488,82.6201923 134.724402,86.869391 136.974402,91.6883013" id="Fill-81" fill="#8A96BF"></path>
                    <path d="M129.502392,79.8405449 L127.784211,78.7331731 L127.784211,78.4046474 C127.856699,78.4567308 127.929904,78.5096154 128.003828,78.5633013 C128.519139,78.9447115 129.017943,79.3717949 129.502392,79.8405449" id="Fill-82" fill="#929EC4"></path>
                    <polyline id="Fill-83" fill="#7387A8" points="160.866746 107.088942 157.245215 104.754808 157.263158 97.7347756 160.884689 100.06891 160.866746 107.088942"></polyline>
                    <polyline id="Fill-84" fill="#7387A8" points="160.884689 100.06891 157.263158 97.7347756 157.353589 62.0769231 160.97512 64.411859 160.884689 100.06891"></polyline>
                    <polyline id="Fill-85" fill="#D5E1ED" points="178.108852 118.202724 160.867464 107.088942 160.884689 100.069712 178.108852 111.171474 178.108852 118.202724"></polyline>
                    <polyline id="Fill-86" fill="#D5E1ED" points="178.108852 111.171474 160.884689 100.069712 160.97512 64.411859 178.108852 75.4559295 178.108852 111.171474"></polyline>
                    <polyline id="Fill-87" fill="#626BC1" points="173.722249 78.1274038 139.619856 56.1450321 139.619856 55.1241987 173.722249 77.1065705 173.722249 78.1274038"></polyline>
                    <polyline id="Fill-88" fill="#626BC1" points="173.722249 80.3645833 139.619856 58.3830128 139.619856 57.3621795 173.722249 79.34375 173.722249 80.3645833"></polyline>
                    <polyline id="Fill-89" fill="#626BC1" points="173.722249 82.6025641 139.619856 60.6201923 139.619856 59.599359 173.722249 81.5817308 173.722249 82.6025641"></polyline>
                    <polyline id="Fill-90" fill="#626BC1" points="164.958373 79.1907051 139.619856 62.8573718 139.619856 61.8373397 164.958373 78.1698718 164.958373 79.1907051"></polyline>
                    <polyline id="Fill-91" fill="#ACBFC6" points="173.722249 88.400641 139.619856 66.4182692 139.619856 65.3974359 173.722249 87.3798077 173.722249 88.400641"></polyline>
                    <polyline id="Fill-92" fill="#ACBFC6" points="173.722249 90.6378205 139.619856 68.6554487 139.619856 67.6354167 173.722249 89.6169872 173.722249 90.6378205"></polyline>
                    <polyline id="Fill-93" fill="#ACBFC6" points="173.722249 92.875 139.619856 70.8934295 139.619856 69.8725962 173.722249 91.8549679 173.722249 92.875"></polyline>
                    <polyline id="Fill-94" fill="#ACBFC6" points="173.722249 96.8036859 139.619856 74.8221154 139.619856 73.8012821 173.722249 95.7836538 173.722249 96.8036859"></polyline>
                    <polyline id="Fill-95" fill="#ACBFC6" points="173.722249 99.0416667 139.619856 77.0592949 139.619856 76.0384615 173.722249 98.0208333 173.722249 99.0416667"></polyline>
                    <polyline id="Fill-96" fill="#ACBFC6" points="149.481818 85.6538462 139.619856 79.2964744 139.619856 78.2764423 149.481818 84.6330128 149.481818 85.6538462"></polyline>
                    <polyline id="Fill-97" fill="#85A8FF" points="136.920574 73.5849359 126.394737 66.7996795 126.394737 47.7708333 136.920574 54.5560897 136.920574 73.5849359"></polyline>
                    <polyline id="Fill-98" fill="#E4F2FD" points="235.595455 165.376603 184.973684 132.746795 184.973684 86.6161859 235.595455 119.245994 235.595455 165.376603"></polyline>
                    <path d="M234.227512,115.116987 L186.342344,84.2508013 C185.586603,83.7636218 184.973684,84.2804487 184.973684,85.4054487 L184.973684,86.6410256 L235.595455,119.270833 L235.595455,118.035256 C235.595455,116.910256 234.983254,115.604167 234.227512,115.116987" id="Fill-99" fill="#011C53"></path>
                    <path d="M189.114115,87.8004808 C189.114115,88.2115385 188.855742,88.3782051 188.537081,88.1722756 C188.218421,87.9671474 187.960048,87.4679487 187.960048,87.056891 C187.960048,86.6458333 188.218421,86.4791667 188.537081,86.6842949 C188.855742,86.8902244 189.114115,87.3894231 189.114115,87.8004808" id="Fill-100" fill="#82E8C1"></path>
                    <path d="M190.975837,89.0008013 C190.975837,89.4110577 190.717464,89.5777244 190.398804,89.3725962 C190.080144,89.1666667 189.82177,88.6674679 189.82177,88.2564103 C189.82177,87.8453526 190.080144,87.6794872 190.398804,87.8846154 C190.717464,88.0897436 190.975837,88.5897436 190.975837,89.0008013" id="Fill-101" fill="#82E8C1"></path>
                    <path d="M192.83756,90.2003205 C192.83756,90.6113782 192.579187,90.7780449 192.260526,90.5721154 C191.941148,90.3669872 191.682775,89.8669872 191.682775,89.4567308 C191.682775,89.0456731 191.941148,88.8790064 192.260526,89.0841346 C192.579187,89.2900641 192.83756,89.7892628 192.83756,90.2003205" id="Fill-102" fill="#82E8C1"></path>
                    <polyline id="Fill-103" fill="#FFFFFF" points="222.046651 147.050481 198.523206 131.887821 198.523206 103.27484 222.046651 118.438301 222.046651 147.050481"></polyline>
                    <polyline id="Fill-104" fill="#E4F2FD" points="219.991148 123.777244 200.360526 111.123397 200.360526 108.435897 219.991148 121.089744 219.991148 123.777244"></polyline>
                    <polyline id="Fill-105" fill="#E4F2FD" points="208.474163 130.201122 205.554545 128.319712 205.554545 127.523237 208.474163 129.405449 208.474163 130.201122"></polyline>
                    <polyline id="Fill-106" fill="#E4F2FD" points="214.544498 134.114583 209.064115 130.581731 209.064115 129.785256 214.544498 133.318109 214.544498 134.114583"></polyline>
                    <polyline id="Fill-107" fill="#E4F2FD" points="219.991148 129.35016 200.360526 116.696314 200.360526 113.647436 219.991148 126.301282 219.991148 129.35016"></polyline>
                    <path d="M219.406938,133.995994 L200.944737,122.095353 C200.62177,121.887821 200.360526,121.329327 200.360526,120.848558 L200.360526,119.540064 C200.360526,119.060096 200.62177,118.838942 200.944737,119.047276 L219.406938,130.947115 C219.729187,131.155449 219.991148,131.713141 219.991148,132.19391 L219.991148,133.502404 C219.991148,133.983173 219.729187,134.203526 219.406938,133.995994" id="Fill-108" fill="#F86174"></path>
                    <path d="M219.406938,141.739583 L200.944737,129.839744 C200.62177,129.63141 200.360526,129.072917 200.360526,128.592949 L200.360526,127.284455 C200.360526,126.803686 200.62177,126.582532 200.944737,126.790865 L219.406938,138.691506 C219.729187,138.899038 219.991148,139.457532 219.991148,139.938301 L219.991148,141.245994 C219.991148,141.726763 219.729187,141.947917 219.406938,141.739583" id="Fill-109" fill="#85A8FF"></path>
                    <polyline id="Fill-110" fill="#E4F2FD" points="157.601196 148.418269 152.620335 151.64984 146.354785 147.611378 151.335646 144.379808 157.601196 148.418269"></polyline>
                    <polyline id="Fill-111" fill="#E4F2FD" points="164.863636 153.099359 159.882775 156.330929 153.613636 152.290064 158.594498 149.058494 164.863636 153.099359"></polyline>
                    <polyline id="Fill-112" fill="#E4F2FD" points="148.951435 154.030449 143.970574 157.262019 137.704306 153.223558 142.685167 149.991987 148.951435 154.030449"></polyline>
                    <polyline id="Fill-113" fill="#E4F2FD" points="172.122488 157.778846 167.141627 161.010417 160.876077 156.971154 165.856938 153.739583 172.122488 157.778846"></polyline>
                    <polyline id="Fill-114" fill="#E4F2FD" points="136.983014 161.795673 131.998565 165.029647 125.732297 160.991186 130.716746 157.757212 136.983014 161.795673"></polyline>
                    <polyline id="Fill-115" fill="#E4F2FD" points="150.2311 162.592949 145.246651 165.826923 138.977512 161.786058 143.961962 158.552083 150.2311 162.592949"></polyline>
                    <polyline id="Fill-116" fill="#E4F2FD" points="163.472727 163.391026 158.491866 166.622596 152.225598 162.583333 157.206459 159.351763 163.472727 163.391026"></polyline>
                    <polyline id="Fill-117" fill="#E4F2FD" points="170.735167 168.072115 165.754306 171.303686 159.48445 167.262821 164.465311 164.030449 170.735167 168.072115"></polyline>
                    <polyline id="Fill-118" fill="#E4F2FD" points="193.906938 171.819712 188.925359 175.052083 182.65622 171.010417 187.637081 167.778846 193.906938 171.819712"></polyline>
                    <polyline id="Fill-119" fill="#E4F2FD" points="164.752392 171.953526 159.767943 175.1875 153.498804 171.146635 158.483254 167.911859 164.752392 171.953526"></polyline>
                    <polyline id="Fill-120" fill="#E4F2FD" points="158.766746 175.83734 153.782297 179.071314 147.51244 175.030449 152.49689 171.795673 158.766746 175.83734"></polyline>
                    <polyline id="Fill-121" fill="#E4F2FD" points="201.169378 176.501603 196.188517 179.733173 189.91866 175.691506 194.899522 172.459936 201.169378 176.501603"></polyline>
                    <polyline id="Fill-122" fill="#E4F2FD" points="185.256459 177.432692 180.275598 180.664263 174.005742 176.622596 178.986603 173.391026 185.256459 177.432692"></polyline>
                    <polyline id="Fill-123" fill="#E4F2FD" points="166.029187 180.518429 161.044737 183.752404 154.77488 179.711538 159.75933 176.477564 166.029187 180.518429"></polyline>
                    <polyline id="Fill-124" fill="#E4F2FD" points="208.42823 181.180288 203.447368 184.411859 197.1811 180.373397 202.161962 177.141827 208.42823 181.180288"></polyline>
                    <polyline id="Fill-125" fill="#E4F2FD" points="179.274402 181.314103 174.289234 184.548077 168.020096 180.50641 173.004545 177.272436 179.274402 181.314103"></polyline>
                    <polyline id="Fill-126" fill="#E4F2FD" points="192.5189 182.113782 187.538038 185.345353 181.268182 181.303686 186.249043 178.072115 192.5189 182.113782"></polyline>
                    <polyline id="Fill-127" fill="#E4F2FD" points="160.043541 184.402244 155.062679 187.633814 148.792823 183.592949 153.773684 180.361378 160.043541 184.402244"></polyline>
                    <polyline id="Fill-128" fill="#E4F2FD" points="173.288038 185.197917 168.303589 188.431891 162.033732 184.390224 167.018182 181.15625 173.288038 185.197917"></polyline>
                    <polyline id="Fill-129" fill="#E4F2FD" points="215.69067 185.861378 210.709809 189.092949 204.439952 185.052083 209.420813 181.820513 215.69067 185.861378"></polyline>
                    <polyline id="Fill-130" fill="#E4F2FD" points="186.536842 185.995192 181.552392 189.229167 175.282536 185.1875 180.266986 181.953526 186.536842 185.995192"></polyline>
                    <polyline id="Fill-131" fill="#E4F2FD" points="199.777751 186.792468 194.79689 190.024038 188.53134 185.985577 193.512201 182.754006 199.777751 186.792468"></polyline>
                    <polyline id="Fill-132" fill="#E4F2FD" points="180.550478 189.879006 175.566029 193.112981 169.296172 189.071314 174.28134 185.83734 180.550478 189.879006"></polyline>
                    <polyline id="Fill-133" fill="#E4F2FD" points="222.949522 190.540865 217.96866 193.772436 211.702392 189.733173 216.683254 186.501603 222.949522 190.540865"></polyline>
                    <polyline id="Fill-134" fill="#E4F2FD" points="193.795694 190.673878 188.810526 193.907853 182.544976 189.869391 187.529426 186.635417 193.795694 190.673878"></polyline>
                    <polyline id="Fill-135" fill="#E4F2FD" points="207.040191 191.474359 202.05933 194.705929 195.789474 190.664263 200.770335 187.432692 207.040191 191.474359"></polyline>
                    <polyline id="Fill-136" fill="#E4F2FD" points="161.316029 192.964744 156.335167 196.197115 150.065311 192.155449 155.046172 188.923878 161.316029 192.964744"></polyline>
                    <polyline id="Fill-137" fill="#E4F2FD" points="187.80933 194.557692 182.82488 197.791667 176.55933 193.753205 181.54378 190.519231 187.80933 194.557692"></polyline>
                    <polyline id="Fill-138" fill="#E4F2FD" points="230.211962 195.221955 225.2311 198.453526 218.961244 194.411859 223.942105 191.180288 230.211962 195.221955"></polyline>
                    <polyline id="Fill-139" fill="#E4F2FD" points="201.058134 195.354968 196.073684 198.589744 189.803828 194.548077 194.788278 191.314103 201.058134 195.354968"></polyline>
                    <polyline id="Fill-140" fill="#E4F2FD" points="195.07177 199.239583 190.087321 202.473558 183.817464 198.431891 188.802632 195.197917 195.07177 199.239583"></polyline>
                    <polyline id="Fill-141" fill="#E4F2FD" points="237.470813 199.900641 232.489952 203.132212 226.223684 199.09375 231.204545 195.862179 237.470813 199.900641"></polyline>
                    <polyline id="Fill-142" fill="#E4F2FD" points="221.561483 200.834135 216.580622 204.065705 210.311483 200.02484 215.292344 196.793269 221.561483 200.834135"></polyline>
                    <polyline id="Fill-143" fill="#E4F2FD" points="189.086124 203.122596 184.105263 206.354968 170.576555 197.634615 175.557416 194.403045 189.086124 203.122596"></polyline>
                    <polyline id="Fill-144" fill="#E4F2FD" points="244.733254 204.581731 239.752392 207.814103 233.482536 203.772436 238.463397 200.540865 244.733254 204.581731"></polyline>
                    <polyline id="Fill-145" fill="#E4F2FD" points="215.579426 204.715545 210.594976 207.949519 204.32512 203.908654 209.309569 200.673878 215.579426 204.715545"></polyline>
                    <polyline id="Fill-146" fill="#E4F2FD" points="228.820335 205.512821 223.839474 208.744391 217.573923 204.705929 222.554785 201.474359 228.820335 205.512821"></polyline>
                    <polyline id="Fill-147" fill="#E4F2FD" points="183.099761 207.007212 178.1189 210.238782 157.327751 196.836538 162.308612 193.604968 183.099761 207.007212"></polyline>
                    <polyline id="Fill-148" fill="#E4F2FD" points="209.593062 208.599359 204.608612 211.833333 198.339474 207.792468 203.323923 204.558494 209.593062 208.599359"></polyline>
                    <polyline id="Fill-149" fill="#E4F2FD" points="222.838278 209.394231 217.853828 212.629006 211.58756 208.589744 216.57201 205.355769 222.838278 209.394231"></polyline>
                    <polyline id="Fill-150" fill="#E4F2FD" points="236.082775 210.194712 231.101914 213.426282 224.832775 209.384615 229.813636 206.153045 236.082775 210.194712"></polyline>
                    <polyline id="Fill-151" fill="#E4F2FD" points="177.114115 210.890224 172.133254 214.121795 165.863397 210.080929 170.844258 206.849359 177.114115 210.890224"></polyline>
                    <polyline id="Fill-152" fill="#E4F2FD" points="203.607416 212.483173 198.626555 215.714744 192.356699 211.673077 197.33756 208.441506 203.607416 212.483173"></polyline>
                    <polyline id="Fill-153" fill="#E4F2FD" points="216.851914 213.278045 211.867464 216.512019 205.601914 212.473558 210.586364 209.239583 216.851914 213.278045"></polyline>
                    <polyline id="Fill-154" fill="#E4F2FD" points="230.100718 214.076122 225.116268 217.310096 218.846411 213.268429 223.830861 210.034455 230.100718 214.076122"></polyline>
                    <polyline id="Fill-155" fill="#E4F2FD" points="197.621053 216.366987 192.640191 219.598558 186.371053 215.557692 191.351914 212.325321 197.621053 216.366987"></polyline>
                    <polyline id="Fill-156" fill="#E4F2FD" points="210.866268 217.161859 205.885407 220.393429 199.619856 216.354968 204.6 213.123397 210.866268 217.161859"></polyline>
                    <polyline id="Fill-157" fill="#E4F2FD" points="224.114354 217.959936 219.129904 221.19391 212.860766 217.152244 217.845215 213.918269 224.114354 217.959936"></polyline>
                    <polyline id="Fill-158" fill="#E4F2FD" points="191.635407 220.250801 186.654545 223.482372 180.384689 219.440705 185.36555 216.209135 191.635407 220.250801"></polyline>
                    <polyline id="Fill-159" fill="#E4F2FD" points="204.879904 221.045673 199.899043 224.277244 193.633493 220.238782 198.614354 217.007212 204.879904 221.045673"></polyline>
                    <polyline id="Fill-160" fill="#E4F2FD" points="218.128708 221.84375 213.147847 225.075321 206.87799 221.033654 211.858852 217.802083 218.128708 221.84375"></polyline>
                    <polyline id="Fill-161" fill="#E4F2FD" points="198.894258 224.929487 193.913397 228.161058 187.647847 224.122596 192.62799 220.891026 198.894258 224.929487"></polyline>
                    <polyline id="Fill-162" fill="#E4F2FD" points="212.142344 225.726763 207.161483 228.959135 200.892344 224.917468 205.873206 221.685897 212.142344 225.726763"></polyline>
                    <polyline id="Fill-163" fill="#E4F2FD" points="206.156699 229.611378 201.175837 232.842949 194.905981 228.801282 199.886842 225.569712 206.156699 229.611378"></polyline>
                    <polyline id="Fill-164" fill="#E4F2FD" points="142.96866 157.911859 137.984211 161.145833 131.71866 157.107372 136.70311 153.873397 142.96866 157.911859"></polyline>
                    <polyline id="Fill-165" fill="#E4F2FD" points="156.213876 158.711538 151.233014 161.94391 144.963158 157.902244 149.944019 154.670673 156.213876 158.711538"></polyline>
                    <polyline id="Fill-166" fill="#E4F2FD" points="179.384928 162.459936 174.404067 165.691506 168.134928 161.64984 173.115789 158.418269 179.384928 162.459936"></polyline>
                    <polyline id="Fill-167" fill="#E4F2FD" points="144.245455 166.476763 139.261005 169.710737 132.991148 165.669872 137.975598 162.435897 144.245455 166.476763"></polyline>
                    <polyline id="Fill-168" fill="#E4F2FD" points="186.648086 167.141026 181.667225 170.372596 175.397368 166.331731 180.37823 163.10016 186.648086 167.141026"></polyline>
                    <polyline id="Fill-169" fill="#E4F2FD" points="157.489952 167.272436 152.505502 170.50641 146.239952 166.467147 151.224402 163.233173 157.489952 167.272436"></polyline>
                    <polyline id="Fill-170" fill="#E4F2FD" points="125.011005 169.563301 120.030144 172.794872 113.763876 168.75641 118.744737 165.52484 125.011005 169.563301"></polyline>
                    <polyline id="Fill-171" fill="#E4F2FD" points="138.259091 170.360577 133.27823 173.592147 119.750239 164.872596 124.7311 161.641026 138.259091 170.360577"></polyline>
                    <polyline id="Fill-172" fill="#E4F2FD" points="151.504306 171.15625 146.519856 174.390224 140.253589 170.350962 145.238756 167.116987 151.504306 171.15625"></polyline>
                    <polyline id="Fill-173" fill="#E4F2FD" points="177.997608 172.753205 173.016746 175.984776 166.74689 171.94391 171.727751 168.71234 177.997608 172.753205"></polyline>
                    <polyline id="Fill-174" fill="#E4F2FD" points="119.024641 173.447115 114.04378 176.678686 107.77823 172.640224 112.759091 169.408654 119.024641 173.447115"></polyline>
                    <polyline id="Fill-175" fill="#E4F2FD" points="132.273445 174.244391 127.292584 177.475962 121.022727 173.435096 126.003589 170.203526 132.273445 174.244391"></polyline>
                    <polyline id="Fill-176" fill="#E4F2FD" points="145.517943 175.040064 140.537081 178.271635 134.271531 174.232372 139.252392 171.000801 145.517943 175.040064"></polyline>
                    <polyline id="Fill-177" fill="#E4F2FD" points="172.01555 176.634615 167.0311 179.86859 160.761244 175.827724 165.745694 172.59375 172.01555 176.634615"></polyline>
                    <polyline id="Fill-178" fill="#E4F2FD" points="126.287081 178.128205 121.30622 181.359776 115.037081 177.31891 120.017943 174.08734 126.287081 178.128205"></polyline>
                    <polyline id="Fill-179" fill="#E4F2FD" points="139.532297 178.923878 134.551435 182.155449 128.285885 178.116186 133.266029 174.884615 139.532297 178.923878"></polyline>
                    <polyline id="Fill-180" fill="#E4F2FD" points="152.780383 179.721154 147.799522 182.952724 141.530383 178.911058 146.511244 175.679487 152.780383 179.721154"></polyline>
                    <polyline id="Fill-181" fill="#E4F2FD" points="146.794737 183.604968 141.813876 186.836538 135.544019 182.795673 140.52488 179.563301 146.794737 183.604968"></polyline>
                    <polyline id="Fill-182" fill="#E4F2FD" points="154.057177 188.286058 149.076316 191.517628 142.806459 187.476763 147.787321 184.245192 154.057177 188.286058"></polyline>
                    <polyline id="Fill-183" fill="#E4F2FD" points="167.302392 189.081731 162.321531 192.313301 156.051675 188.271635 161.032536 185.040064 167.302392 189.081731"></polyline>
                    <polyline id="Fill-184" fill="#E4F2FD" points="174.564833 193.762821 169.583971 196.994391 163.314115 192.952724 168.294976 189.721154 174.564833 193.762821"></polyline>
                    <polyline id="Fill-185" fill="#E4F2FD" points="162.592823 201.530449 157.611962 204.762019 122.299522 182 127.280383 178.768429 162.592823 201.530449"></polyline>
                    <polyline id="Fill-186" fill="#E4F2FD" points="169.851675 206.209135 164.870813 209.440705 158.604545 205.402244 163.585407 202.170673 169.851675 206.209135"></polyline>
                    <path d="M210.870574,85.8357372 C211.489234,86.2339744 211.992344,85.9142628 211.994498,85.1201923 C211.996651,84.3269231 211.496411,83.3589744 210.877751,82.9599359 C210.259091,82.5616987 209.755263,82.8822115 209.75311,83.6754808 C209.750957,84.4695513 210.251914,85.4366987 210.870574,85.8357372" id="Fill-187" fill="#82E8C1"></path>
                    <path d="M160.820813,125.448718 L160.820096,125.448718 L160.823684,124.169071 L160.820813,125.448718 M157.197129,123.637019 C157.032775,123.535256 156.866268,123.430288 156.698325,123.322115 C156.033014,122.893429 155.339713,122.407853 154.618421,121.859776 C147.976794,116.826122 143.864354,107.372596 139.88756,98.2299679 C138.912919,95.9911859 137.953349,93.7852564 136.974402,91.6883013 L138.22823,92.4959936 C139.037081,94.2708333 139.835167,96.1057692 140.642584,97.9623397 C144.495933,106.816506 148.479187,115.971154 154.705981,120.693109 C155.379187,121.203526 156.027273,121.657051 156.650957,122.059295 C156.836124,122.178686 157.019139,122.293269 157.200718,122.403846 L157.197129,123.637019 M108.878469,88.8605769 C108.64378,88.4278846 108.401914,88.0032051 108.152871,87.5889423 C109.426794,86.2828526 110.634689,84.8774038 111.808852,83.5120192 C115.062919,79.7283654 118.198565,76.0833333 121.902632,75.505609 L121.902632,76.9399038 C118.625598,77.7043269 115.745455,81.0560897 112.588278,84.7251603 C111.397608,86.1113782 110.172488,87.5360577 108.878469,88.8605769" id="Fill-188" fill="#5893AF"></path>
                    <path d="M160.820096,125.448718 C159.719139,125.035256 158.513397,124.446314 157.197129,123.637019 L157.200718,122.403846 C158.522727,123.210737 159.729187,123.782051 160.823684,124.169071 L160.820096,125.448718" id="Fill-189" fill="#3F8396"></path>
                    <path d="M165.002871,126.286058 C163.823684,126.286058 162.435646,126.05609 160.820813,125.448718 L160.823684,124.169071 C162.250478,124.673878 163.487799,124.866987 164.545694,124.866987 C167.973445,124.866987 169.51866,122.839744 169.543062,122.804487 L170.351196,123.983173 C170.239952,124.136218 168.601435,126.286058 165.002871,126.286058" id="Fill-190" fill="#AAE4E0"></path>
                    <path d="M138.22823,92.4959936 L136.974402,91.6883013 C134.724402,86.869391 132.372488,82.6201923 129.502392,79.8405449 L132.132057,81.5352564 C134.397129,84.5464744 136.341388,88.3581731 138.22823,92.4959936 M127.784211,78.4046474 C127.638517,78.3020833 127.494258,78.2043269 127.351435,78.1129808 C125.908852,77.1826923 124.5689,76.7764423 123.297129,76.7764423 C122.823445,76.7764423 122.359091,76.8333333 121.902632,76.9399038 L121.902632,75.505609 C122.236364,75.4535256 122.574402,75.4270833 122.918182,75.4270833 C124.304785,75.4270833 125.774641,75.8677885 127.362201,76.8910256 C127.502153,76.9807692 127.642105,77.0753205 127.784211,77.1746795 L127.784211,78.4046474" id="Fill-191" fill="#8AC5D0"></path>
                    <path d="M132.132057,81.5352564 L129.502392,79.8405449 C129.017943,79.3717949 128.519139,78.9447115 128.003828,78.5633013 C127.929904,78.5096154 127.856699,78.4567308 127.784211,78.4046474 L127.784211,77.1746795 C127.880383,77.2419872 127.97799,77.3125 128.075598,77.3846154 C129.551914,78.4751603 130.890431,79.8854167 132.132057,81.5352564" id="Fill-192" fill="#8EC9D3"></path>
                    <path d="M87.4406699,90.806891 C78.6344498,84.9959936 73.1985646,77.4166667 67.9220096,70.0600962 C62.9196172,63.0841346 57.7471292,55.8717949 49.642823,50.1490385 C49.3873206,49.9695513 49.1332536,49.7972756 48.8799043,49.6346154 C45.4255981,47.4078526 42.1995215,46.7508013 39.5949761,46.7508013 C35.8794258,46.7508013 33.4299043,48.0873397 33.3882775,48.1129808 L32.7337321,46.7972756 C32.9117225,46.6963141 35.3842105,45.3421474 39.1471292,45.3421474 C41.8464115,45.3421474 45.2102871,46.0384615 48.8669856,48.3958333 C49.1404306,48.5721154 49.4145933,48.7572115 49.6909091,48.9527244 C58.030622,54.8397436 63.3057416,62.1963141 68.407177,69.3100962 C73.8839713,76.9471154 79.0801435,84.1939103 87.8289474,89.8357372 C87.6983254,90.15625 87.5684211,90.4807692 87.4406699,90.806891" id="Fill-193" fill="#5893AF"></path>
                    <g id="Group-196" transform="translate(32.296651, 69.711538)">
                        <mask id="mask-7" fill="white">
                            <use xlink:href="#path-6"></use>
                        </mask>
                        <g id="Clip-195"></g>
                        <path d="M132.705502,112.752404 L134.721531,111.444712 L132.705502,112.752404 M131.716507,112.115385 L133.732536,110.806891 L131.716507,112.115385 M135.723445,110.794872 L137.193301,109.841346 L135.723445,110.794872 M134.733732,110.157051 L128.463876,106.116186 L133.449043,102.882212 L128.464593,106.116186 L134.73445,110.157051 L134.733732,110.157051 M125.446651,108.073718 L127.462679,106.766026 L125.446651,108.073718 M136.768421,103.726763 L134.450239,102.232372 L136.530861,100.882212 L136.530861,100.883013 L134.450239,102.232372 L136.768421,103.725962 L136.768421,103.726763 M118.184211,103.392628 L120.200239,102.084135 L118.184211,103.392628 M117.191627,102.752404 L119.207656,101.444712 L117.191627,102.752404 M133.457656,101.592147 L127.187799,97.5512821 L132.16866,94.3189103 L127.187799,97.5512821 L133.457656,101.592147 M121.202153,101.434295 L126.186603,98.2003205 L121.202153,101.435096 M122.701435,99.1778846 L125.193301,97.5608974 L122.701435,99.1778846 M126.195215,96.9110577 L119.928947,92.8717949 L126.195215,96.9110577 M112.95,96.1153846 L106.680144,92.0745192 L111.665311,88.8405449 L106.680861,92.0745192 L112.95,96.1153846 M103.662919,94.0320513 L105.678947,92.724359 L103.662919,94.0320513 M119.928947,92.8717949 L124.909809,89.6402244 L119.928947,92.8717949 M118.935646,92.2323718 L112.666507,88.1907051 L118.936364,92.2323718 L118.935646,92.2323718 M96.404067,89.3533654 L98.4200957,88.0456731 L96.404067,89.3533654 M101.715072,88.8741987 L99.4220096,87.3958333 L104.406459,84.161859 L99.4220096,87.3958333 L101.715072,88.8741987 M111.673206,87.5504808 L105.407656,83.5120192 L110.388517,80.2804487 L105.407656,83.5120192 L111.673923,87.5504808 L111.673206,87.5504808 M128.579426,87.2596154 L133.560287,84.0280449 L128.579426,87.2596154 M114.752871,86.8373397 L117.647368,84.9591346 L114.752871,86.8373397 M89.9956938,85.2219551 L0.705502392,27.6674679 C0.89784689,26.03125 5.0576555,0.641826923 14.5722488,0.641826923 C14.9461722,0.641826923 15.3279904,0.681089744 15.7177033,0.762820513 C25.0399522,2.70352564 29.0160287,32.4607372 42.1787081,41.8902244 C42.9028708,42.4086538 43.5811005,42.6474359 44.2212919,42.6474359 C47.9978469,42.6474359 50.4574163,34.3213141 53.3526316,25.994391 C53.927512,24.3397436 54.5203349,22.6850962 55.1440191,21.0953526 C55.2933014,21.1939103 55.4440191,21.2924679 55.5947368,21.3902244 C56.3461722,21.8741987 57.1212919,22.3461538 57.9244019,22.8060897 C60.672488,24.3733974 63.1327751,25.0304487 65.3669856,25.0304487 C69.84689,25.0296474 73.4188995,22.3886218 76.5818182,19.1490385 C85.0241627,34.7227564 84.3789474,61.9014423 95.8464115,69.2932692 C97.7239234,70.5040064 99.3308612,71.0208333 100.733254,71.0208333 C104.857177,71.0208333 107.217703,66.5488782 109.536603,62.0769231 C111.855502,57.6049679 114.132775,53.1330128 118.088756,53.1330128 C119.333254,53.1330128 120.744258,53.5761218 122.375598,54.6017628 C123.267703,55.1754808 124.105263,55.9206731 124.893301,56.8133013 L124.878947,62.5897436 L129.887081,65.818109 L124.87823,62.5897436 L89.9956938,85.2219551 M123.611483,84.0576923 L121.316986,82.5785256 L126.297847,79.3469551 L121.316986,82.5785256 L123.611483,84.0576923 M120.323684,81.9383013 L114.058134,77.8998397 L119.038995,74.6682692 L114.058134,77.8998397 L120.323684,81.9383013" id="Fill-194" fill="url(#linearGradient-8)" mask="url(#mask-7)"></path>
                    </g>
                    <g id="Group-199" transform="translate(122.009569, 132.211538)">
                        <mask id="mask-10" fill="white">
                            <use xlink:href="#path-9"></use>
                        </mask>
                        <g id="Clip-198"></g>
                        <path d="M47.6720096,50.6610577 L45.0086124,48.9447115 L42.9925837,50.2524038 L42.0035885,49.6153846 L44.0196172,48.306891 L37.7497608,44.2660256 L35.7337321,45.5737179 L34.7411483,44.9334936 L36.757177,43.6258013 L30.4873206,39.5841346 L28.4712919,40.8926282 L27.4787081,40.2524038 L29.4947368,38.9447115 L23.2291866,34.9054487 L21.2131579,36.2139423 L20.2198565,35.5737179 L22.2358852,34.2652244 L15.9660287,30.224359 L13.95,31.5320513 L12.9574163,30.8926282 L14.973445,29.5841346 L8.70717703,25.5456731 L6.69114833,26.8533654 L0.28277512,22.7219551 L35.165311,0.0897435897 L40.1741627,3.31810897 C42.2497608,8.79407051 43.7476077,15.4807692 44.8356459,22.1650641 L43.8473684,21.5280449 L38.8665072,24.7596154 L45.1320574,28.7988782 L45.7421053,28.4030449 C46.0062201,30.4463141 46.2351675,32.4519231 46.434689,34.3838141 L42.4557416,31.8189103 L37.4748804,35.0512821 L43.7447368,39.0921474 L46.708134,37.1698718 C46.7454545,37.5785256 46.7820574,37.9831731 46.8179426,38.3822115 L44.7373206,39.7323718 L47.0555024,41.2267628 C47.0921053,41.6899038 47.126555,42.1442308 47.1595694,42.5889423 L43.7361244,40.3822115 L38.7509569,43.6161859 L45.0208134,47.6570513 L45.0215311,47.6570513 L47.4035885,46.1113782 C47.4308612,46.5360577 47.4566986,46.9463141 47.4803828,47.3413462 L46.0105263,48.2948718 L47.5966507,49.3173077 C47.6239234,49.8028846 47.6490431,50.2516026 47.6720096,50.6610577 M31.4892344,38.9350962 L37.7583732,42.9759615 L42.742823,39.7419872 L36.4736842,35.7003205 L31.4892344,38.9342949 M24.2303828,34.255609 L30.495933,38.2948718 L35.4803828,35.0608974 L29.2148325,31.0216346 L24.2303828,34.255609 M36.4822967,34.4110577 L41.4631579,31.1794872 L35.19689,27.1402244 L30.2160287,30.3717949 L36.4822967,34.4110577 M23.2370813,33.6153846 L28.2215311,30.3814103 L21.9523923,26.3405449 L16.9672249,29.5745192 L23.2370813,33.6153846 M29.223445,29.7323718 L34.2043062,26.5 L27.9344498,22.4591346 L25.0399522,24.3373397 L22.9535885,25.6907051 L29.2227273,29.7323718 M12.0021531,26.3741987 L15.9746411,28.9342949 L20.9590909,25.7003205 L14.6935407,21.661859 L9.70909091,24.8958333 L12.0021531,26.3741987 M21.9610048,25.0504808 L26.941866,21.8189103 L20.6755981,17.7804487 L15.6947368,21.0120192 L21.9602871,25.0504808 M33.8985646,21.5576923 L37.8732057,24.119391 L42.854067,20.8878205 L36.5849282,16.8469551 L31.604067,20.0785256 L33.8985646,21.5576923 M30.6107656,19.4383013 L35.5916268,16.2067308 L29.3260766,12.1682692 L24.3452153,15.3998397 L30.6107656,19.4383013" id="Fill-197" fill="url(#linearGradient-11)" mask="url(#mask-10)"></path>
                    </g>
                    <g id="Group-202" transform="translate(156.459330, 125.801282)">
                        <mask id="mask-13" fill="white">
                            <use xlink:href="#path-12"></use>
                        </mask>
                        <g id="Clip-201"></g>
                        <path d="M5.72440191,9.72836538 L0.716267943,6.5 L0.73062201,0.723557692 C2.68708134,2.93910256 4.33564593,6.06330128 5.72440191,9.72836538" id="Fill-200" fill="url(#linearGradient-14)" mask="url(#mask-13)"></path>
                    </g>
                    <g id="Group-205" transform="translate(145.693780, 144.230769)">
                        <mask id="mask-16" fill="white">
                            <use xlink:href="#path-15"></use>
                        </mask>
                        <g id="Clip-204"></g>
                        <polyline id="Fill-203" fill="url(#linearGradient-17)" mask="url(#mask-16)" points="6.92655502 7.41907051 6.92655502 7.41907051 0.661004785 3.38060897 5.64186603 0.149038462 11.9074163 4.1875 6.92655502 7.41907051"></polyline>
                    </g>
                    <g id="Group-208" transform="translate(153.588517, 149.038462)">
                        <mask id="mask-19" fill="white">
                            <use xlink:href="#path-18"></use>
                        </mask>
                        <g id="Clip-207"></g>
                        <polyline id="Fill-206" fill="url(#linearGradient-20)" mask="url(#mask-19)" points="6.29425837 7.29246795 0.0251196172 3.25160256 5.00598086 0.0200320513 11.2751196 4.06089744 6.29425837 7.29246795"></polyline>
                    </g>
                    <g id="Group-211" transform="translate(137.081340, 149.839744)">
                        <mask id="mask-22" fill="white">
                            <use xlink:href="#path-21"></use>
                        </mask>
                        <g id="Clip-210"></g>
                        <polyline id="Fill-209" fill="url(#linearGradient-23)" mask="url(#mask-22)" points="6.88923445 7.42227564 6.88923445 7.42227564 0.622966507 3.3838141 5.60382775 0.15224359 11.8700957 4.19070513 6.88923445 7.42227564"></polyline>
                    </g>
                    <g id="Group-214" transform="translate(160.765550, 153.044872)">
                        <mask id="mask-25" fill="white">
                            <use xlink:href="#path-24"></use>
                        </mask>
                        <g id="Clip-213"></g>
                        <path d="M6.37607656,7.96554487 L0.110526316,3.92628205 L5.09138756,0.694711538 L6.07966507,1.33173077 C6.42057416,3.42307692 6.72129187,5.51602564 6.9861244,7.56971154 L6.37607656,7.96554487" id="Fill-212" fill="url(#linearGradient-26)" mask="url(#mask-25)"></path>
                    </g>
                    <g id="Group-217" transform="translate(128.468900, 157.051282)">
                        <mask id="mask-28" fill="white">
                            <use xlink:href="#path-27"></use>
                        </mask>
                        <g id="Clip-216"></g>
                        <polyline id="Fill-215" fill="url(#linearGradient-29)" mask="url(#mask-28)" points="6.49808612 6.05288462 0.231818182 2.01362179 2.24784689 0.705929487 8.51411483 4.74439103 6.49808612 6.05288462"></polyline>
                    </g>
                    <g id="Group-220" transform="translate(138.516746, 157.852564)">
                        <mask id="mask-31" fill="white">
                            <use xlink:href="#path-30"></use>
                        </mask>
                        <g id="Clip-219"></g>
                        <polyline id="Fill-218" fill="url(#linearGradient-32)" mask="url(#mask-31)" points="6.72990431 7.97435897 6.72990431 7.97435897 0.46076555 3.93349359 5.44521531 0.699519231 11.7143541 4.74038462 6.72990431 7.97435897"></polyline>
                    </g>
                    <g id="Group-223" transform="translate(152.153110, 158.653846)">
                        <mask id="mask-34" fill="white">
                            <use xlink:href="#path-33"></use>
                        </mask>
                        <g id="Clip-222"></g>
                        <polyline id="Fill-221" fill="url(#linearGradient-35)" mask="url(#mask-34)" points="6.33875598 7.96875 6.33875598 7.96875 0.0724880383 3.92948718 5.05334928 0.697916667 11.3196172 4.73717949 6.33875598 7.96875"></polyline>
                    </g>
                    <g id="Group-226" transform="translate(159.330144, 163.461538)">
                        <mask id="mask-37" fill="white">
                            <use xlink:href="#path-36"></use>
                        </mask>
                        <g id="Clip-225"></g>
                        <path d="M6.42416268,7.84214744 L0.15430622,3.80128205 L5.13516746,0.568910256 L9.11411483,3.1338141 C9.21244019,4.08253205 9.30287081,5.01041667 9.38755981,5.91987179 L6.42416268,7.84214744" id="Fill-224" fill="url(#linearGradient-38)" mask="url(#mask-37)"></path>
                    </g>
                    <g id="Group-229" transform="translate(152.870813, 167.467949)">
                        <mask id="mask-40" fill="white">
                            <use xlink:href="#path-39"></use>
                        </mask>
                        <g id="Clip-228"></g>
                        <polyline id="Fill-227" fill="url(#linearGradient-41)" mask="url(#mask-40)" points="6.89712919 7.71955128 0.627990431 3.6786859 5.61244019 0.443910256 11.8815789 4.48557692 6.89712919 7.71955128"></polyline>
                    </g>
                    <g id="Group-232" transform="translate(150.000000, 171.474359)">
                        <mask id="mask-43" fill="white">
                            <use xlink:href="#path-42"></use>
                        </mask>
                        <g id="Clip-231"></g>
                        <polyline id="Fill-230" fill="url(#linearGradient-44)" mask="url(#mask-43)" points="6.7507177 5.67067308 0.480861244 1.62980769 2.49688995 0.321314103 8.76674641 4.36298077 6.7507177 5.67067308"></polyline>
                    </g>
                    <g id="Group-235" transform="translate(157.177033, 176.282051)">
                        <mask id="mask-46" fill="white">
                            <use xlink:href="#path-45"></use>
                        </mask>
                        <g id="Clip-234"></g>
                        <polyline id="Fill-233" fill="url(#linearGradient-47)" mask="url(#mask-46)" points="6.8361244 5.54487179 0.566267943 1.50320513 2.58229665 0.195512821 8.85215311 4.23637821 6.8361244 5.54487179"></polyline>
                    </g>
                    <g id="Group-238" transform="translate(167.942584, 179.487179)">
                        <mask id="mask-49" fill="white">
                            <use xlink:href="#path-48"></use>
                        </mask>
                        <g id="Clip-237"></g>
                        <path d="M1.66363636,2.04166667 L0.0775119617,1.01923077 L1.54736842,0.0657051282 C1.59114833,0.77724359 1.6291866,1.43830128 1.66363636,2.04166667" id="Fill-236" fill="url(#linearGradient-50)" mask="url(#mask-49)"></path>
                    </g>
                    <g id="Group-241" transform="translate(164.354067, 181.089744)">
                        <mask id="mask-52" fill="white">
                            <use xlink:href="#path-51"></use>
                        </mask>
                        <g id="Clip-240"></g>
                        <path d="M5.50406699,4.50480769 L0.648086124,1.37419872 L2.66411483,0.0665064103 L5.32751196,1.78285256 C5.40861244,3.25 5.46100478,4.20432692 5.50406699,4.50480769" id="Fill-239" fill="url(#linearGradient-53)" mask="url(#mask-52)"></path>
                    </g>
                    <g id="Group-244" transform="translate(131.339713, 153.846154)">
                        <mask id="mask-55" fill="white">
                            <use xlink:href="#path-54"></use>
                        </mask>
                        <g id="Clip-243"></g>
                        <polyline id="Fill-242" fill="url(#linearGradient-56)" mask="url(#mask-55)" points="6.64449761 7.29967949 2.67200957 4.73958333 0.378947368 3.26121795 5.36339713 0.0272435897 11.6289474 4.06570513 6.64449761 7.29967949"></polyline>
                    </g>
                    <g id="Group-247" transform="translate(144.258373, 154.647436)">
                        <mask id="mask-58" fill="white">
                            <use xlink:href="#path-57"></use>
                        </mask>
                        <g id="Clip-246"></g>
                        <polyline id="Fill-245" fill="url(#linearGradient-59)" mask="url(#mask-58)" points="6.97464115 7.29647436 6.97464115 7.29647436 0.704784689 3.25480769 2.79114833 1.90144231 5.68564593 0.0232371795 11.9555024 4.06410256 6.97464115 7.29647436"></polyline>
                    </g>
                    <g id="Group-250" transform="translate(135.645933, 161.858974)">
                        <mask id="mask-61" fill="white">
                            <use xlink:href="#path-60"></use>
                        </mask>
                        <g id="Clip-249"></g>
                        <polyline id="Fill-248" fill="url(#linearGradient-62)" mask="url(#mask-61)" points="6.58349282 5.92628205 0.313636364 1.88461538 2.32966507 0.576923077 8.59952153 4.61778846 6.58349282 5.92628205"></polyline>
                    </g>
                    <g id="Group-253" transform="translate(145.693780, 162.660256)">
                        <mask id="mask-64" fill="white">
                            <use xlink:href="#path-63"></use>
                        </mask>
                        <g id="Clip-252"></g>
                        <polyline id="Fill-251" fill="url(#linearGradient-65)" mask="url(#mask-64)" points="6.81172249 7.84615385 0.546172249 3.80689103 5.53062201 0.572916667 11.7961722 4.61217949 6.81172249 7.84615385"></polyline>
                    </g>
                    <g id="Group-256" transform="translate(142.822967, 166.666667)">
                        <mask id="mask-67" fill="white">
                            <use xlink:href="#path-66"></use>
                        </mask>
                        <g id="Clip-255"></g>
                        <polyline id="Fill-254" fill="url(#linearGradient-68)" mask="url(#mask-67)" points="6.665311 5.79727564 0.399760766 1.7588141 2.41578947 0.450320513 8.68133971 4.48958333 6.665311 5.79727564"></polyline>
                    </g>
                    <g id="Group-259" transform="translate(166.507177, 169.871795)">
                        <mask id="mask-70" fill="white">
                            <use xlink:href="#path-69"></use>
                        </mask>
                        <g id="Clip-258"></g>
                        <path d="M2.55789474,3.56570513 L0.239712919,2.07211538 L2.32033493,0.72275641 C2.40645933,1.70112179 2.4854067,2.65144231 2.55789474,3.56570513" id="Fill-257" fill="url(#linearGradient-71)" mask="url(#mask-70)"></path>
                    </g>
                    <g id="Group-262" transform="translate(160.047847, 172.275641)">
                        <mask id="mask-73" fill="white">
                            <use xlink:href="#path-72"></use>
                        </mask>
                        <g id="Clip-261"></g>
                        <path d="M6.98325359,7.59294872 L0.713397129,3.55208333 L5.69784689,0.318108974 L9.12129187,2.52483974 C9.215311,3.78285256 9.29569378,4.96233974 9.365311,6.04727564 L6.98325359,7.59294872" id="Fill-260" fill="url(#linearGradient-74)" mask="url(#mask-73)"></path>
                    </g>
                    <g id="Group-265" transform="translate(87.559809, 78.525641)">
                        <mask id="mask-76" fill="white">
                            <use xlink:href="#path-75"></use>
                        </mask>
                        <g id="Clip-264"></g>
                        <path d="M9.65956938,14.8293269 C7.53157895,14.8293269 5.19976077,14.2075321 2.60885167,12.7291667 C1.80358852,12.2700321 1.02703349,11.7980769 0.276315789,11.3141026 C0.274162679,11.3133013 0.271291866,11.3108974 0.269138756,11.3100962 C2.70574163,5.34214744 5.63755981,0.52724359 9.83325359,0.52724359 C11.1014354,0.52724359 12.4837321,0.966346154 14.0038278,1.9463141 C16.6844498,3.67387821 18.8260766,6.12580128 20.5930622,9.06330128 C17.4925837,12.2403846 14.0016746,14.8293269 9.65956938,14.8293269" id="Fill-263" fill="url(#linearGradient-77)" mask="url(#mask-76)"></path>
                    </g>
                    <g id="Group-268" transform="translate(86.842105, 87.339744)">
                        <mask id="mask-79" fill="white">
                            <use xlink:href="#path-78"></use>
                        </mask>
                        <g id="Clip-267"></g>
                        <path d="M10.8215311,7.40224359 C8.58732057,7.40224359 6.12703349,6.74519231 3.37894737,5.17788462 C2.57583732,4.71794872 1.8007177,4.24599359 1.0492823,3.76201923 C0.898564593,3.66426282 0.74784689,3.56570513 0.598564593,3.46714744 C0.726315789,3.14102564 0.856220096,2.81650641 0.986842105,2.49599359 C0.988995215,2.49679487 0.991866029,2.49919872 0.994019139,2.5 C1.74473684,2.98397436 2.52129187,3.45592949 3.32655502,3.9150641 C5.91746411,5.39342949 8.2492823,6.01522436 10.3772727,6.01522436 C14.719378,6.01522436 18.2102871,3.42628205 21.3107656,0.249198718 C21.5598086,0.663461538 21.8016746,1.08814103 22.0363636,1.52083333 C18.873445,4.76041667 15.3014354,7.40144231 10.8215311,7.40224359" id="Fill-266" fill="url(#linearGradient-80)" mask="url(#mask-79)"></path>
                    </g>
                    <path d="M128.062679,73.6482372 C129.559091,74.6129808 130.769139,76.9535256 130.764115,78.8725962 C130.759091,80.7948718 129.541148,81.5673077 128.044737,80.6033654 C126.546172,79.6370192 125.338278,77.3004808 125.343301,75.3782051 C125.348325,73.4591346 126.564115,72.6826923 128.062679,73.6482372" id="Fill-269" fill="#FFFFFF"></path>
                    <polyline id="Fill-270" fill="#FFFFFF" points="48.1758373 107.834135 47.7796651 107.615385 47.7796651 28.3653846 48.1758373 28.5849359 48.1758373 107.834135"></polyline>
                    <polyline id="Fill-271" fill="#FFFFFF" points="74.8650718 124.847756 74.4688995 124.628205 74.4688995 45.3790064 74.8650718 45.5985577 74.8650718 124.847756"></polyline>
                    <polyline id="Fill-272" fill="#FFFFFF" points="98.5184211 140.084135 98.1222488 139.864583 98.1222488 60.6153846 98.5184211 60.8341346 98.5184211 140.084135"></polyline>
                    <polyline id="Fill-273" fill="#FFFFFF" points="128.046172 159.048878 127.65 158.829327 127.65 79.5801282 128.046172 79.7988782 128.046172 159.048878"></polyline>
                    <polyline id="Fill-274" fill="#FFFFFF" points="154.733971 176.586538 154.337799 176.367788 154.337799 97.1177885 154.733971 97.3373397 154.733971 176.586538"></polyline>
                    <polyline id="Fill-294" fill="#C6D0DC" points="56.8191388 186.859776 22.6858852 164.858173 70.0930622 134.300481 104.226316 156.302083 56.8191388 186.859776"></polyline>
                    <g id="Fill-295">
                        <use fill="black" fill-opacity="1" filter="url(#filter-82)" xlink:href="#path-81"></use>
                        <use fill="#E6E6E6" fill-rule="evenodd" xlink:href="#path-81"></use>
                    </g>
                    <polyline id="Fill-296" fill="#C5D5DD" points="49.4354067 112.56891 46.1404306 110.445513 46.1404306 109.448718 49.4354067 111.572917 49.4354067 112.56891"></polyline>
                    <polyline id="Fill-297" fill="#C5D5DD" points="76.1160287 128.933494 72.8217703 126.809295 72.8217703 125.8125 76.1160287 127.936699 76.1160287 128.933494"></polyline>
                    <polyline id="Fill-298" fill="#C5D5DD" points="99.9674641 143.613782 96.6732057 141.490385 96.6732057 140.49359 99.9674641 142.616987 99.9674641 143.613782"></polyline>
                    <polygon id="Rectangle" fill="#737373" fill-rule="nonzero" points="60.4450135 137.579502 65.920305 134.114583 100.149989 156.36894 93.6616888 160.385262"></polygon>
                </g>
            </g>
        </g>
    </g>
</svg>